<svg width="173" height="111" viewBox="0 0 173 111" fill="none" xmlns="http://www.w3.org/2000/svg">
<path d="M88.6878 97.4012C84.0575 96.0984 80.0047 93.204 75.8075 90.7444C70.8816 87.8568 65.6772 85.3905 60.0328 87.5613C55.2564 89.4433 51.3496 94.5085 54.5328 99.4276C58.1507 104.928 66.3991 103.334 71.8991 103.334C72.3339 103.334 72.767 103.623 73.2019 103.623C67.5575 103.623 61.6243 104.491 56.5558 101.887C55.212 101.253 54.0766 100.249 53.2822 98.9933C52.4878 97.7375 52.0673 96.2815 52.0698 94.7955C52.2142 91.4663 55.253 89.1512 58.003 87.704C62.4889 85.3888 67.5541 86.6848 72.04 88.5719C78.2636 91.1776 83.3271 95.9523 89.8395 97.8343C89.8395 97.6899 88.8203 97.3995 88.681 97.3995" fill="#002855"/>
<path d="M33.5113 91.6114C27.7225 91.0322 22.0782 87.9934 20.0534 82.2047C19.5417 80.7438 19.4193 79.1748 19.6984 77.6522C19.9775 76.1296 20.6484 74.706 21.645 73.5215C22.5289 72.6175 23.6463 71.9766 24.8729 71.6701C26.0994 71.3636 27.387 71.4036 28.5922 71.7856C30.6037 72.1899 32.5191 72.9758 34.2349 74.1008C36.7115 76.0377 38.7775 78.4484 40.3124 81.1923C44.5221 87.3694 50.256 92.3544 56.9585 95.6642C61.8575 98.1147 67.2556 99.4021 72.7332 99.4266C73.168 99.4266 73.6012 99.7153 74.036 99.7153C67.1087 99.5788 60.3147 97.7867 54.2213 94.4887C48.1279 91.1907 42.9121 86.4825 39.0096 80.7575C37.4599 77.9802 35.3386 75.5631 32.786 73.6659C31.6764 72.796 30.365 72.2204 28.9735 71.9926C27.582 71.7649 26.1555 71.8923 24.8265 72.3631C23.5051 73.0758 22.4108 74.1458 21.6686 75.4509C20.9264 76.7559 20.5662 78.2434 20.6293 79.7434C20.7147 81.3708 21.1461 82.9613 21.8948 84.4088C22.6434 85.8564 23.6921 87.1276 24.9708 88.1378C27.0008 89.9135 29.5261 91.0245 32.2068 91.321C32.6536 91.3476 33.0934 91.4451 33.5096 91.6097" fill="#002855"/>
<path d="M5.29101 91.7558C4.42303 90.8878 3.55506 90.1642 2.40342 90.5974C1.10061 91.0322 1.24499 92.7681 1.38427 93.7805C1.81911 97.1097 5.43709 97.6872 8.04101 97.8333C16.2893 98.5569 24.3932 95.2277 32.3528 93.6361C46.2455 91.0305 61.1505 90.7485 73.4584 98.8457C73.1697 98.5569 72.5905 98.7013 72.1556 98.5569C68.0029 95.7628 63.3254 93.8424 58.4073 92.9125C54.2491 92.2148 50.0221 92.0203 45.8174 92.3333C37.1343 92.9125 28.886 95.0833 20.4916 97.1097C14.9916 98.4125 8.04611 99.2805 2.69218 96.6749C0.665776 95.6557 -1.64939 90.7417 1.67303 90.1625C2.58748 90.1566 3.49397 90.3327 4.33967 90.6806C5.18537 91.0285 5.95338 91.5412 6.59892 92.1889C6.31016 91.9002 5.57977 92.0446 5.29611 91.7541" fill="#002855"/>
<path d="M39.2829 88.1401C38.6087 87.9784 37.901 88.0289 37.2565 88.2845C36.9168 88.4329 36.6122 88.6513 36.3628 88.9256C36.1134 89.1999 35.9248 89.5238 35.8093 89.8761C35.4746 90.6827 35.3144 91.5511 35.3393 92.4241C35.3641 93.2971 35.5735 94.155 35.9537 94.9412C36.2957 95.7923 36.7857 96.5761 37.4009 97.2564C37.7601 97.58 38.1478 97.8705 38.5593 98.1244C39.0099 98.4245 39.496 98.6675 40.0065 98.848C41.4664 99.0547 42.9542 98.9276 44.3578 98.4763C45.7615 98.025 47.0446 97.2612 48.1104 96.2423C52.3076 92.1895 49.4132 85.3884 45.7953 82.0609C39.1385 76.1278 30.5998 81.9165 27.8498 88.7176C25.3902 94.7952 28.7177 103.334 33.4941 107.387C39.7177 112.596 47.2425 108.545 52.8868 104.499C58.5312 100.592 63.5879 96.1065 70.5419 94.8036C75.0278 93.9357 82.1194 95.8228 81.3958 101.751C80.8166 107.105 73.8711 109.276 70.1087 105.948C70.3975 106.237 71.1279 106.092 71.4115 106.237C71.9028 106.706 72.5189 107.024 73.1862 107.153C73.8535 107.281 74.5436 107.214 75.1739 106.96C76.6808 106.452 77.9946 105.492 78.9363 104.21C79.8604 102.98 80.2846 101.446 80.1236 99.9156C79.9626 98.3854 79.2283 96.9729 78.0683 95.9621C75.7531 93.7913 71.9908 94.8037 69.2357 95.5272C66.1346 96.5831 63.2081 98.095 60.5525 100.013C55.0525 103.92 49.5542 109.276 42.4626 109.999C40.2833 110.05 38.1165 109.656 36.0947 108.841C32.845 107.564 30.1706 105.149 28.57 102.046C26.7833 98.9747 25.8815 95.4686 25.9643 91.9161C26.1753 88.3154 27.7851 84.9397 30.4503 82.5093C32.6075 80.449 35.4384 79.2404 38.4185 79.1074C41.3986 78.9743 44.3259 79.9259 46.6581 81.7857C50.711 84.8245 53.4525 91.4812 49.9874 95.9672C47.2374 99.5851 41.1547 100.02 37.3975 97.7031C36.0866 96.8303 35.1044 95.5452 34.6063 94.0512C34.1081 92.5571 34.1227 90.9397 34.6475 89.4548C35.6666 86.7048 38.5542 87.284 40.725 88.152C40.2536 88.2976 39.7492 88.2976 39.2778 88.152" fill="#002855"/>
<path d="M83.7569 97.4012C88.3872 96.0984 92.44 93.204 96.6372 90.7444C101.563 87.8568 106.768 85.3905 112.412 87.5613C117.188 89.4433 121.095 94.5085 117.912 99.4276C114.294 104.928 106.046 103.334 100.546 103.334C100.111 103.334 99.6776 103.623 99.2428 103.623C104.887 103.623 110.82 104.491 115.889 101.887C117.233 101.253 118.368 100.249 119.163 98.9933C119.957 97.7375 120.377 96.2815 120.375 94.7955C120.23 91.4663 117.192 89.1512 114.442 87.704C109.956 85.3888 104.891 86.6848 100.405 88.5719C94.1811 91.1776 89.1176 95.9523 82.6052 97.8343C82.6052 97.6899 83.6244 97.3995 83.7637 97.3995" fill="#002855"/>
<path d="M138.935 91.6114C144.724 91.0322 150.368 87.9934 152.393 82.2047C152.905 80.7438 153.027 79.1748 152.748 77.6522C152.469 76.1296 151.798 74.706 150.802 73.5215C149.918 72.6175 148.8 71.9766 147.574 71.6701C146.347 71.3636 145.06 71.4036 143.854 71.7856C141.842 72.1897 139.926 72.9756 138.21 74.1008C135.733 76.0377 133.667 78.4484 132.132 81.1923C127.923 87.3694 122.189 92.3544 115.486 95.6642C110.587 98.1147 105.189 99.4021 99.7116 99.4266C99.2768 99.4266 98.8436 99.7153 98.4088 99.7153C105.336 99.5788 112.13 97.7867 118.224 94.4887C124.317 91.1907 129.533 86.4825 133.435 80.7575C134.977 78.0181 137.042 75.6086 139.513 73.6659C140.622 72.796 141.934 72.2204 143.325 71.9926C144.717 71.7649 146.143 71.8923 147.472 72.3631C148.794 73.0758 149.888 74.1458 150.63 75.4509C151.372 76.7559 151.732 78.2434 151.669 79.7434C151.585 81.3704 151.154 82.9607 150.406 84.4082C149.659 85.8556 148.611 87.1271 147.333 88.1378C145.303 89.9135 142.778 91.0245 140.097 91.321C139.7 91.365 139.31 91.4622 138.939 91.6097" fill="#002855"/>
<path d="M167.154 91.7558C168.022 90.8878 168.89 90.1642 170.041 90.5974C171.344 91.0322 171.2 92.7681 171.061 93.7805C170.626 97.1097 167.008 97.6872 164.404 97.8333C156.156 98.5569 148.052 95.2277 140.092 93.6361C126.199 91.0305 111.294 90.7485 98.9865 98.8457C99.2752 98.5569 99.8544 98.7013 100.289 98.5569C104.442 95.7628 109.12 93.8424 114.038 92.9125C118.196 92.2148 122.423 92.0203 126.627 92.3333C135.311 92.9125 143.559 95.0833 151.953 97.1097C157.453 98.4125 164.543 99.2805 169.753 96.6749C171.779 95.6557 174.094 90.7417 170.772 90.1625C169.857 90.1566 168.951 90.3327 168.105 90.6806C167.259 91.0285 166.491 91.5412 165.846 92.1889C166.135 91.9002 166.865 92.0446 167.149 91.7541" fill="#002855"/>
<path d="M133.162 88.1401C133.836 87.9784 134.544 88.0289 135.188 88.2845C135.528 88.4329 135.832 88.6513 136.082 88.9256C136.331 89.1999 136.52 89.5238 136.635 89.8761C136.97 90.6827 137.13 91.5511 137.105 92.4241C137.081 93.2971 136.871 94.155 136.491 94.9412C136.149 95.7923 135.659 96.5761 135.044 97.2564C134.685 97.58 134.297 97.8705 133.885 98.1244C133.435 98.4245 132.949 98.6675 132.438 98.848C130.978 99.0547 129.491 98.9276 128.087 98.4763C126.683 98.025 125.4 97.2612 124.334 96.2423C120.137 92.1895 123.031 85.3884 126.649 82.0609C133.306 76.1278 141.845 81.7721 144.595 88.7176C147.054 94.7952 143.727 103.334 138.951 107.387C132.727 112.596 125.202 108.545 119.558 104.499C113.913 100.592 108.857 96.1065 101.903 94.8036C97.2725 93.9357 90.3253 95.8228 91.0489 101.751C91.6281 107.105 98.5736 109.276 102.336 105.948C102.047 106.237 101.317 106.092 101.033 106.237C100.542 106.706 99.9258 107.024 99.2585 107.153C98.5912 107.281 97.9011 107.214 97.2708 106.96C95.7638 106.452 94.4501 105.492 93.5084 104.21C92.5843 102.98 92.1601 101.446 92.3211 99.9156C92.4821 98.3854 93.2164 96.9729 94.3764 95.9621C96.6916 93.7913 100.454 94.8037 103.209 95.5272C106.31 96.5831 109.237 98.095 111.892 100.013C117.392 103.92 122.89 109.276 129.982 109.999C132.161 110.05 134.328 109.656 136.35 108.841C139.6 107.564 142.274 105.149 143.875 102.046C145.661 98.9747 146.563 95.4686 146.48 91.9161C146.269 88.3154 144.66 84.9397 141.994 82.5093C139.837 80.449 137.006 79.2404 134.026 79.1074C131.046 78.9743 128.119 79.9259 125.787 81.7857C121.734 84.8245 118.992 91.4812 122.457 95.9672C125.207 99.5851 131.29 100.02 135.047 97.7031C136.358 96.8303 137.34 95.5452 137.838 94.0512C138.337 92.5571 138.322 90.9397 137.797 89.4548C136.778 86.7048 133.89 87.284 131.72 88.152C132.191 88.2976 132.695 88.2976 133.167 88.152" fill="#002855"/>
<path d="M49.0056 46.6056L48.282 48.1972H39.8877L39.7433 25.477H43.2169L43.3613 46.6056H49.0056Z" fill="#002855"/>
<path d="M60.0804 47.6184C58.1984 48.0532 57.0417 48.3419 56.7512 48.3419C55.8832 48.3419 55.5928 47.474 55.5928 45.5919V40.0936C53.8568 40.3824 53.1332 41.6852 53.1332 43.856C53.1332 45.738 53.5681 46.7436 54.436 46.7436C54.7328 46.7666 55.0307 46.717 55.304 46.5992L55.0153 48.3351C54.3538 48.5123 53.6735 48.6092 52.9889 48.6239C52.4843 48.6382 51.986 48.51 51.5509 48.2541C51.1159 47.9981 50.7618 47.6247 50.5293 47.1767C49.9228 46.3395 49.6169 45.322 49.6613 44.2891C49.6433 42.6694 50.2675 41.1084 51.3973 39.9476C52.5327 38.825 54.0093 38.1121 55.5945 37.9212V36.474C55.6189 35.834 55.5209 35.1952 55.3057 34.5919C55.22 34.2807 55.0288 34.0088 54.7648 33.8229C54.5008 33.637 54.1805 33.5486 53.8585 33.5728C52.6815 33.6314 51.5375 33.9816 50.5293 34.5919L50.6737 32.5655C51.7611 31.877 53.0066 31.4782 54.2917 31.4071C57.3304 31.4071 58.922 33.2891 58.922 37.1959V45.1554C58.8821 45.631 58.9682 46.1087 59.1716 46.5405C59.3749 46.9722 59.6884 47.3428 60.0804 47.615" fill="#002855"/>
<path d="M88.3363 47.4739L84.8626 48.493L82.9806 33.7324L79.6514 47.7694L77.1919 48.493L73.5739 33.7324L71.9823 48.0599H69.8132L71.984 27.3661L71.6953 25.9189L75.1689 25.0509L79.0756 40.97L82.1144 27.5122L81.8256 25.9206L85.4402 25.0424L88.3363 47.4739Z" fill="#002855"/>
<path d="M93.9365 26.3459C93.9662 26.9548 93.8149 27.5589 93.5017 28.0819C93.0668 28.6611 92.6337 29.101 92.0545 29.101C91.7753 29.1038 91.5017 29.0225 91.2694 28.8677C91.037 28.7129 90.8566 28.4917 90.7517 28.233C90.4666 27.6985 90.3175 27.102 90.3175 26.4962C90.3175 25.8905 90.4666 25.294 90.7517 24.7594C90.8799 24.4758 91.0817 24.2317 91.3362 24.0525C91.5907 23.8732 91.8886 23.7654 92.1988 23.7403C92.4934 23.7523 92.7803 23.8381 93.0332 23.9897C93.286 24.1413 93.4967 24.354 93.646 24.6083C93.8123 25.1731 93.9092 25.756 93.9348 26.3442L93.9365 26.3459ZM94.0792 48.0521H90.6073V31.8442L94.0809 30.9762L94.0792 48.0521Z" fill="#002855"/>
<path d="M100.933 48.0527H97.4594L97.3151 23.5931L100.789 22.7252L100.933 48.0527Z" fill="#002855"/>
<path d="M107.493 48.0527H104.019V23.5931L107.493 22.7252V48.0527Z" fill="#002855"/>
<path d="M121.177 39.8031C121.226 41.7644 120.778 43.7063 119.874 45.4475C119.483 46.3397 118.832 47.0929 118.006 47.6083C117.179 48.1236 116.216 48.377 115.243 48.335C114.291 48.3574 113.352 48.1114 112.533 47.6251C111.714 47.1388 111.049 46.4318 110.613 45.5851C109.709 43.8958 109.26 42.0004 109.31 40.0851C109.261 38.1237 109.709 36.1819 110.613 34.4407C110.998 33.5631 111.623 32.8126 112.417 32.2762C113.212 31.7399 114.141 31.4396 115.099 31.4104C116.043 31.4202 116.965 31.6964 117.758 32.2073C118.552 32.7182 119.185 33.4429 119.585 34.298C120.713 35.9031 121.273 37.8386 121.177 39.798V39.8031ZM117.559 40.0867C117.559 35.4553 116.835 33.1396 115.388 33.1396C113.941 33.1396 113.073 35.4547 113.073 39.9339C113.073 44.5642 113.796 46.8811 115.388 46.8811C116.835 46.7367 117.559 44.5659 117.559 40.0867Z" fill="#002855"/>
<path d="M132.846 48.0532H129.365V46.7504C128.931 47.2566 128.4 47.6709 127.804 47.969C127.207 48.2671 126.557 48.443 125.892 48.4863C124.589 48.4863 123.721 47.6183 123.142 45.8807C122.696 44.5283 122.5 43.1061 122.563 41.6835V32.1341L126.036 31.2661V41.8296C126.036 44.4352 126.471 45.7363 127.483 45.7363C127.878 45.6831 128.254 45.5373 128.581 45.3109C128.908 45.0844 129.177 44.7838 129.365 44.4335V32.1341L132.839 31.2661L132.846 48.0532Z" fill="#002855"/>
<path d="M62.8848 56.0132C62.9118 56.3267 62.8744 56.6425 62.7748 56.941C62.6751 57.2396 62.5155 57.5146 62.3056 57.7491C62.109 57.9783 61.8647 58.1618 61.5898 58.2868C61.3149 58.4118 61.016 58.4752 60.7141 58.4727C60.51 58.4944 60.3048 58.4433 60.1348 58.3283L59.9905 57.8935C60.1348 57.8935 60.2792 58.0379 60.5697 58.0379C60.7599 58.0626 60.9527 58.0176 61.1123 57.9111C61.2719 57.8046 61.3875 57.6438 61.4377 57.4587C61.566 57.0868 61.6152 56.6922 61.582 56.3002C61.6173 55.9538 61.5678 55.604 61.4377 55.2811C61.4012 55.1165 61.3096 54.9693 61.178 54.8639C61.0463 54.7585 60.8826 54.7014 60.7141 54.7019C60.4458 54.7071 60.1886 54.8098 59.9905 54.9906V60.3446H58.832V54.2755L59.9905 54.1311V54.566C60.3713 54.2936 60.8252 54.1421 61.2933 54.1311C61.5407 54.1181 61.7877 54.1638 62.0142 54.2645C62.2406 54.3651 62.44 54.5179 62.5961 54.7104C62.8848 54.9991 62.8848 55.434 62.8848 56.0132Z" fill="#002855"/>
<path d="M67.2569 58.1835L66.0984 58.3279C65.9541 58.3279 65.8097 58.3279 65.8097 58.1835C65.8097 58.0391 65.6653 57.8948 65.6653 57.7487V56.1571C64.7973 56.1571 64.5069 56.5919 64.5069 57.1763C64.5069 57.6111 64.6513 57.7555 65.0861 57.7555C65.2902 57.7772 65.4953 57.7261 65.6653 57.6111L65.5209 58.0459C65.1952 58.1653 64.8479 58.2145 64.5018 58.1903C64.1945 58.1604 63.8978 58.0617 63.6338 57.9016C63.5008 57.8338 63.3895 57.73 63.3127 57.6021C63.2358 57.4742 63.1964 57.3272 63.199 57.178C63.2198 56.9227 63.3123 56.6785 63.4659 56.4735C63.6194 56.2686 63.8278 56.1112 64.0669 56.0195C64.5446 55.7244 65.0972 55.5734 65.6585 55.5847V55.2959C65.6752 55.1781 65.6643 55.0579 65.6266 54.945C65.5889 54.832 65.5254 54.7294 65.4413 54.6452C65.3571 54.561 65.2544 54.4976 65.1415 54.4599C65.0286 54.4222 64.9084 54.4112 64.7905 54.428C64.3484 54.4844 63.9123 54.5811 63.4877 54.7167V54.2751C63.9537 54.1097 64.4412 54.0125 64.9349 53.9863C66.0934 53.9863 66.6709 54.4212 66.6709 55.4335V57.3155C66.9596 57.8948 67.1057 58.1835 67.2501 58.1835" fill="#002855"/>
<path d="M71.1993 54.1307L70.9106 54.9987C70.8535 54.9437 70.7848 54.9022 70.7095 54.8772C70.6343 54.8523 70.5544 54.8444 70.4757 54.8543C70.2888 54.8487 70.1048 54.9015 69.9493 55.0053C69.7937 55.1091 69.6744 55.2588 69.6078 55.4335V58.1835H68.4493V54.1307L69.6078 53.9863V54.8543C69.7162 54.6363 69.8636 54.44 70.0426 54.2751C70.2408 54.0942 70.498 53.9916 70.7662 53.9863C70.9196 54.004 71.0676 54.0531 71.201 54.1307" fill="#002855"/>
<path d="M75.128 56.0126H72.3797V56.157C72.3797 57.3154 72.8145 57.8929 73.8269 57.8929C74.1725 57.9076 74.518 57.8587 74.846 57.7485L74.7016 58.1834C74.1861 58.3492 73.651 58.4463 73.11 58.4721C72.84 58.4998 72.5672 58.4616 72.3151 58.3607C72.0631 58.2598 71.8392 58.0993 71.6629 57.8929C71.3687 57.4686 71.2165 56.9619 71.228 56.4457C71.2133 56.1552 71.2569 55.8646 71.3564 55.5913C71.4559 55.3179 71.6092 55.0672 71.8072 54.8541C72.0038 54.6249 72.2481 54.4414 72.5231 54.3164C72.798 54.1915 73.0968 54.128 73.3988 54.1305C74.5572 53.9862 75.1348 54.7098 75.1348 56.0126H75.128ZM73.9763 55.5777C73.9763 54.7098 73.6876 54.4193 73.2527 54.4193C72.964 54.4193 72.8179 54.5637 72.6735 54.8541C72.5422 55.071 72.4911 55.3271 72.5291 55.5777H73.9763Z" fill="#002855"/>
<path d="M79.7941 58.3278H78.6357V55.8683C78.6357 55.1447 78.4913 54.7099 78.0564 54.7099C77.7882 54.7152 77.531 54.8178 77.3328 54.9986V58.1818H76.0317V54.1307L77.1902 53.9863V54.5655C77.5789 54.1916 78.098 53.9838 78.6374 53.9863C78.8276 53.9615 79.0204 54.0066 79.18 54.1131C79.3396 54.2196 79.4552 54.3803 79.5053 54.5655C79.686 54.9256 79.7846 55.3212 79.7941 55.7239V58.3278Z" fill="#002855"/>
<path d="M83.441 57.7528L83.2966 58.1877C82.8706 58.293 82.4325 58.3415 81.9938 58.3321C81.2702 58.3321 80.9746 57.8972 80.9746 57.1736V54.4185H80.4022V53.9837H80.9814V52.9645L82.1399 52.8202V53.9786H83.2898V54.4134H82.2707V56.873C82.2707 57.1617 82.2707 57.3078 82.415 57.4522C82.5594 57.5966 82.7038 57.5966 82.9943 57.5966C83.0514 57.6515 83.1201 57.693 83.1953 57.718C83.2706 57.743 83.3504 57.7508 83.4291 57.741" fill="#002855"/>
<path d="M85.1991 52.1038C84.9802 52.407 84.8317 52.7551 84.7642 53.1229C84.7426 53.2751 84.774 53.4301 84.8532 53.5619C84.9324 53.6937 85.0545 53.7942 85.1991 53.8465L84.4755 54.4257C84.3425 54.358 84.2312 54.2542 84.1543 54.1263C84.0775 53.9983 84.0381 53.8514 84.0406 53.7021C84.0873 53.3503 84.1845 53.007 84.3294 52.683C84.4708 52.3623 84.6668 52.0686 84.9086 51.815L85.1991 52.1038Z" fill="#002855"/>
<path d="M88.8358 57.0184C88.8639 57.2283 88.8225 57.4415 88.7179 57.6256C88.6133 57.8097 88.4513 57.9544 88.2566 58.0376C87.8508 58.2342 87.4046 58.3331 86.9537 58.3263C86.5536 58.299 86.1614 58.2013 85.7953 58.0376L85.6509 57.6027C86.0171 57.7664 86.4092 57.8642 86.8094 57.8915C87.0981 57.8915 87.2442 57.8915 87.3886 57.7471C87.533 57.6027 87.6773 57.4584 87.6773 57.3123C87.6773 57.0235 87.5329 56.8774 87.0981 56.7331C86.8094 56.5887 86.3745 56.4443 86.079 56.2982C85.7902 56.0095 85.4998 55.719 85.4998 55.4302C85.4895 55.2229 85.5385 55.0169 85.6411 54.8364C85.7436 54.6559 85.8955 54.5084 86.079 54.4111C86.4389 54.2302 86.8346 54.1315 87.2374 54.1223C87.5963 54.1295 87.9473 54.229 88.2566 54.4111L88.4009 54.8459C88.0769 54.7011 87.7336 54.6038 87.3818 54.5572C87.3031 54.5473 87.2233 54.5551 87.148 54.5801C87.0728 54.6051 87.0041 54.6466 86.9469 54.7016C86.8026 54.8459 86.6582 54.9903 86.6582 55.1364C86.6582 55.2825 86.8026 55.4251 87.2374 55.7156C87.6002 55.865 87.9426 56.0596 88.2566 56.2948C88.6914 56.2948 88.8358 56.5836 88.8358 57.0184Z" fill="#002855"/>
<path d="M95.9764 56.0132C96.0034 56.3267 95.9659 56.6425 95.8663 56.941C95.7667 57.2396 95.607 57.5146 95.3972 57.7491C95.2006 57.9783 94.9563 58.1618 94.6814 58.2868C94.4065 58.4118 94.1076 58.4752 93.8056 58.4727C93.6016 58.4944 93.3964 58.4433 93.2264 58.3283L93.082 57.8935C93.2264 57.8935 93.3708 58.0379 93.6612 58.0379C93.8515 58.0626 94.0443 58.0176 94.2039 57.9111C94.3635 57.8046 94.479 57.6438 94.5292 57.4587C94.6576 57.0868 94.7067 56.6922 94.6736 56.3002C94.7089 55.9538 94.6593 55.604 94.5292 55.2811C94.4928 55.1165 94.4011 54.9693 94.2695 54.8639C94.1379 54.7585 93.9742 54.7014 93.8056 54.7019C93.5169 54.7019 93.3708 54.8462 93.082 54.9906V60.3446H91.9236V54.2755L93.082 54.1311V54.566C93.4628 54.2936 93.9168 54.1421 94.3848 54.1311C94.6323 54.1181 94.8793 54.1638 95.1057 54.2645C95.3321 54.3651 95.5315 54.5179 95.6876 54.7104C95.8843 55.1161 95.9832 55.5623 95.9764 56.0132Z" fill="#002855"/>
<path d="M99.7693 54.1307L99.4805 54.9987C99.4234 54.9437 99.3547 54.9022 99.2795 54.8773C99.2042 54.8523 99.1244 54.8444 99.0457 54.8543C98.8588 54.8488 98.6748 54.9015 98.5192 55.0053C98.3637 55.1091 98.2443 55.2588 98.1777 55.4335V58.1835H97.0193V54.1307L98.1777 53.9863V54.8543C98.2862 54.6364 98.4335 54.4401 98.6125 54.2751C98.8107 54.0942 99.0679 53.9916 99.3361 53.9863C99.493 53.9855 99.6458 54.0362 99.771 54.1307" fill="#002855"/>
<path d="M101.669 52.683C101.675 52.7628 101.664 52.843 101.638 52.9186C101.612 52.9941 101.57 53.0634 101.515 53.1222C101.461 53.1809 101.395 53.2277 101.322 53.2597C101.249 53.2918 101.169 53.3083 101.089 53.3083C101.009 53.3083 100.93 53.2918 100.857 53.2597C100.783 53.2277 100.718 53.1809 100.663 53.1222C100.609 53.0634 100.567 52.9941 100.541 52.9186C100.514 52.843 100.504 52.7628 100.51 52.683C100.51 52.5386 100.51 52.2482 100.654 52.2482C100.78 52.1543 100.932 52.1036 101.088 52.1036C101.245 52.1036 101.397 52.1543 101.522 52.2482C101.522 52.3926 101.667 52.5369 101.667 52.683H101.669ZM101.522 58.3274H100.366V54.2746L101.524 54.1302L101.522 58.3274Z" fill="#002855"/>
<path d="M106.472 58.3274H105.307V54.7026C105.084 54.5858 104.833 54.5357 104.583 54.5582C104.415 54.5577 104.251 54.6149 104.119 54.7202C103.988 54.8256 103.896 54.9728 103.86 55.1374C103.74 55.4632 103.691 55.8105 103.715 56.1566C103.682 56.5486 103.731 56.9431 103.86 57.315C103.91 57.5002 104.025 57.6609 104.185 57.7674C104.344 57.8739 104.537 57.919 104.728 57.8942C104.932 57.9159 105.137 57.8648 105.307 57.7498L105.162 58.1847C105.018 58.3291 104.728 58.3291 104.294 58.3291C104.026 58.3431 103.757 58.2985 103.507 58.1985C103.257 58.0985 103.032 57.9454 102.847 57.7498C102.553 57.3255 102.401 56.8189 102.412 56.3026C102.398 56.0121 102.441 55.7216 102.541 55.4482C102.64 55.1748 102.794 54.9242 102.992 54.7111C103.169 54.4968 103.39 54.3218 103.639 54.1972C103.888 54.0726 104.161 54.0012 104.439 53.9875C104.794 54.0151 105.141 54.1132 105.458 54.2762V51.9594L106.616 51.815V58.3274H106.472Z" fill="#002855"/>
<path d="M111.136 56.0126H108.388V56.157C108.388 57.3154 108.823 57.8929 109.835 57.8929C110.181 57.9076 110.526 57.8586 110.854 57.7485L110.71 58.1834C110.195 58.3492 109.659 58.4463 109.118 58.4721C108.848 58.4998 108.576 58.4616 108.324 58.3607C108.071 58.2598 107.848 58.0993 107.671 57.8929C107.377 57.4686 107.225 56.9619 107.236 56.4457C107.222 56.1552 107.265 55.8646 107.365 55.5913C107.464 55.3179 107.618 55.0672 107.816 54.8541C108.012 54.6249 108.257 54.4414 108.531 54.3164C108.806 54.1915 109.105 54.128 109.407 54.1305C110.566 53.9862 111.143 54.7098 111.143 56.0126H111.136ZM109.985 55.5777C109.985 54.7098 109.696 54.4193 109.261 54.4193C108.972 54.4193 108.826 54.5637 108.682 54.8541C108.551 55.071 108.5 55.3271 108.538 55.5777H109.985Z" fill="#002855"/>
<path d="M85.8088 82.0598C85.5669 82.9688 85.6174 83.931 85.9531 84.8098C86.3197 85.5592 86.8666 86.2058 87.5447 86.6918C88.2091 87.0997 88.9524 87.3623 89.7256 87.4621C90.4988 87.5619 91.2844 87.4968 92.0307 87.271C92.175 87.271 92.175 87.1266 92.3194 87.1266C90.8722 86.8379 89.8599 84.9558 89.1363 83.653C88.8621 83.0345 88.376 82.5342 87.7656 82.2424C87.1552 81.9506 86.4606 81.8864 85.8071 82.0615L85.8088 82.0598Z" fill="#002855"/>
<path d="M86.9281 82.061C87.1698 82.9701 87.1193 83.9322 86.7837 84.811C86.4172 85.5604 85.8703 86.207 85.1922 86.693C84.5186 87.143 83.7493 87.4297 82.9455 87.5302C82.1417 87.6308 81.3255 87.5424 80.5618 87.2722C80.4174 87.2722 80.4175 87.1278 80.2731 87.1278C82.1551 86.9834 82.8787 84.957 83.7467 83.6542C83.9972 83.0505 84.4569 82.5573 85.0415 82.2649C85.6261 81.9726 86.2965 81.9008 86.9298 82.0627L86.9281 82.061Z" fill="#002855"/>
<path d="M88.6132 81.1851V81.0408C90.0852 80.5696 91.583 80.1828 93.0991 79.8823C94.4875 79.6184 95.8883 79.425 97.2963 79.3031C99.1783 79.0144 101.203 78.7239 103.085 78.284V78.4283C101.203 78.8632 99.1783 79.1519 97.2963 79.4475C95.8491 79.5919 94.5463 79.8823 93.0991 80.0267C91.5682 80.2586 90.065 80.6468 88.6132 81.1851Z" fill="#002855"/>
<path d="M88.2751 81.0481C87.5815 80.4304 87.0793 79.627 86.8279 78.7329C86.7411 77.8714 86.945 77.0056 87.4071 76.2734C88.0024 75.4761 88.7635 74.8174 89.638 74.3426C90.5124 73.8679 91.4794 73.5884 92.4723 73.5233H92.9071C91.0251 74.2469 90.7363 76.5621 90.4476 78.0093C90.5088 78.6917 90.3234 79.3734 89.9252 79.9309C89.5269 80.4884 88.9421 80.8847 88.2768 81.0481H88.2751Z" fill="#002855"/>
<path d="M88.2751 81.0481C87.5815 80.4304 87.0793 79.627 86.8279 78.7329C86.7411 77.8714 86.945 77.0056 87.4071 76.2734C88.0024 75.4761 88.7635 74.8174 89.638 74.3426C90.5124 73.8679 91.4794 73.5884 92.4723 73.5233H92.9071C91.0251 74.2469 90.7363 76.5621 90.4476 78.0093C90.5088 78.6917 90.3234 79.3734 89.9252 79.9309C89.5269 80.4884 88.9421 80.8847 88.2768 81.0481H88.2751Z" fill="#002855"/>
<path d="M91.6417 80.1862C91.3522 81.08 91.3522 82.0424 91.6417 82.9362C91.961 83.7154 92.5179 84.374 93.2333 84.8183C93.9109 85.2573 94.6735 85.5487 95.4713 85.6734C96.2691 85.7981 97.0843 85.7532 97.8636 85.5418C97.973 85.5263 98.0743 85.4756 98.1524 85.3975C96.2703 85.2531 95.6928 83.2267 94.8231 81.7795C94.525 81.2152 94.0578 80.7583 93.487 80.4728C92.9162 80.1874 92.2703 80.0878 91.64 80.1879L91.6417 80.1862Z" fill="#002855"/>
<path d="M94.1149 79.5998C93.4845 78.875 93.1244 77.9544 93.0957 76.9942C93.0966 76.0995 93.4028 75.2318 93.9637 74.5346C94.5519 73.8821 95.2647 73.3538 96.0602 72.981C96.8558 72.6082 97.7179 72.3983 98.5957 72.3639H98.8845C97.4373 73.0875 97.1485 75.1139 96.7137 76.7054C96.7044 77.4212 96.4348 78.109 95.9553 78.6405C95.4757 79.1719 94.8191 79.5105 94.1081 79.593L94.1149 79.5998Z" fill="#002855"/>
<path d="M97.6207 79.3185C97.3032 80.1983 97.2041 81.142 97.3319 82.0685C97.5946 82.917 98.1614 83.6386 98.9235 84.0949C99.743 84.5909 100.667 84.8885 101.622 84.964C102.577 85.0395 103.536 84.8908 104.423 84.5298C104.568 84.5298 104.568 84.3854 104.712 84.3854C102.83 84.241 101.673 82.359 100.806 81.0562C100.514 80.4773 100.053 80.0009 99.4842 79.6905C98.9152 79.3801 98.2652 79.2503 97.6207 79.3185Z" fill="#002855"/>
<path d="M100.09 78.8765C99.5191 78.1174 99.1667 77.2163 99.0713 76.2709C99.0673 75.443 99.3201 74.6341 99.7949 73.9558C100.266 73.3028 100.871 72.7583 101.57 72.3589C102.269 71.9596 103.046 71.7146 103.848 71.6406H104.136C102.834 72.5086 102.689 74.6794 102.401 76.1266C102.388 76.7801 102.152 77.4097 101.732 77.9102C101.312 78.4107 100.732 78.7518 100.09 78.8765Z" fill="#002855"/>
<path d="M86.1146 82.3511V82.2067C88.8646 80.4708 93.6393 79.7472 98.2714 79.0236C101.057 78.7013 103.814 78.1693 106.52 77.432C113.037 75.5262 119.341 72.9558 125.333 69.7612L125.478 69.9056C119.498 73.1238 113.192 75.6947 106.667 77.5747C103.962 78.312 101.205 78.844 98.4191 79.1663C93.6427 79.8899 89.0124 80.6134 86.118 82.3494" fill="#002855"/>
<path d="M91.6418 80.1862C91.3518 81.08 91.3518 82.0425 91.6418 82.9362C91.9611 83.7154 92.518 84.374 93.2334 84.8183C93.911 85.2573 94.6736 85.5487 95.4714 85.6734C96.2692 85.7981 97.0844 85.7532 97.8637 85.5418C97.9731 85.5263 98.0744 85.4756 98.1525 85.3975C96.2704 85.2531 95.6929 83.2267 94.8232 81.7795C94.5252 81.2152 94.0579 80.7583 93.4871 80.4728C92.9163 80.1874 92.2704 80.0878 91.6401 80.1879L91.6418 80.1862Z" fill="#002855"/>
<path d="M94.1149 79.5998C93.4845 78.875 93.1244 77.9544 93.0957 76.9942C93.0966 76.0995 93.4028 75.2318 93.9637 74.5346C94.5519 73.8821 95.2647 73.3538 96.0602 72.981C96.8558 72.6082 97.7179 72.3983 98.5957 72.3639H98.8845C97.4373 73.0875 97.1485 75.1139 96.7137 76.7054C96.7044 77.4212 96.4348 78.109 95.9553 78.6405C95.4757 79.1719 94.8191 79.5105 94.1081 79.593L94.1149 79.5998Z" fill="#002855"/>
<path d="M97.6207 79.3185C97.3032 80.1983 97.2041 81.142 97.3319 82.0685C97.5946 82.917 98.1614 83.6386 98.9235 84.0949C99.743 84.5909 100.667 84.8885 101.622 84.964C102.577 85.0395 103.536 84.8908 104.423 84.5298C104.568 84.5298 104.568 84.3854 104.712 84.3854C102.83 84.241 101.673 82.359 100.806 81.0562C100.514 80.4773 100.053 80.0009 99.4842 79.6905C98.9152 79.3801 98.2652 79.2503 97.6207 79.3185Z" fill="#002855"/>
<path d="M100.09 78.8765C99.5191 78.1174 99.1667 77.2163 99.0713 76.2709C99.0673 75.443 99.3201 74.6341 99.7949 73.9558C100.266 73.3028 100.871 72.7583 101.57 72.3589C102.269 71.9596 103.046 71.7146 103.848 71.6406H104.136C102.834 72.5086 102.689 74.6794 102.401 76.1266C102.388 76.7801 102.152 77.4097 101.732 77.9102C101.312 78.4107 100.732 78.7518 100.09 78.8765Z" fill="#002855"/>
<path d="M103.455 78.2975C103.165 79.1912 103.165 80.1537 103.455 81.0475C103.831 81.8353 104.436 82.4913 105.191 82.9295C106.055 83.3234 106.992 83.5273 107.941 83.5273C108.89 83.5273 109.828 83.3234 110.691 82.9295C110.836 82.9295 110.836 82.7851 110.98 82.7851C109.098 82.9295 107.797 81.0492 106.783 79.8975C106.509 79.279 106.023 78.7787 105.412 78.4869C104.802 78.1951 104.107 78.1309 103.454 78.306L103.455 78.2975Z" fill="#002855"/>
<path d="M105.911 77.5763C105.256 76.894 104.805 76.042 104.609 75.1167C104.505 74.2542 104.711 73.383 105.188 72.6572C105.608 71.9492 106.174 71.3381 106.847 70.8641C107.52 70.3902 108.286 70.0641 109.095 69.9072H109.383C108.08 70.9263 108.08 72.946 107.936 74.5375C108.03 75.2044 107.875 75.8826 107.502 76.4429C107.128 77.0032 106.561 77.4066 105.91 77.5763H105.911Z" fill="#002855"/>
<path d="M109.29 76.7074C109.097 77.6318 109.198 78.5932 109.579 79.4574C109.756 79.8607 110.015 80.2231 110.338 80.5218C110.662 80.8205 111.044 81.0492 111.461 81.1934C112.355 81.5189 113.309 81.6486 114.258 81.5736C115.207 81.4986 116.129 81.2206 116.961 80.7585C117.105 80.7585 117.105 80.6142 117.249 80.6142C115.367 80.9029 114.066 79.167 112.908 78.0085C112.51 77.4478 111.95 77.0223 111.303 76.7894C110.656 76.5565 109.954 76.5273 109.29 76.7057V76.7074Z" fill="#002855"/>
<path d="M111.593 75.8363C110.886 75.2905 110.386 74.5199 110.175 73.6516C109.964 72.7832 110.056 71.8691 110.435 71.0599C110.822 70.3236 111.356 69.6744 112.003 69.1521C112.65 68.6298 113.398 68.2455 114.199 68.0228H114.488C113.185 69.0419 113.469 71.2059 113.469 72.7992C113.56 73.4447 113.422 74.1018 113.08 74.6565C112.737 75.2112 112.211 75.6285 111.593 75.8363Z" fill="#002855"/>
<path d="M98.3646 79.1665V79.0221C105.061 78.0556 111.588 76.1557 117.757 73.3778C124.058 70.8646 129.882 67.2919 134.978 62.8143L135.122 62.9587C130.196 67.8846 123.979 70.9182 117.9 73.6597C111.678 76.3972 105.103 78.2485 98.3663 79.1597" fill="#002855"/>
<path d="M103.455 78.2975C103.165 79.1912 103.165 80.1537 103.455 81.0475C103.831 81.8353 104.436 82.4913 105.191 82.9295C106.055 83.3234 106.992 83.5273 107.941 83.5273C108.89 83.5273 109.828 83.3234 110.691 82.9295C110.836 82.9295 110.836 82.7851 110.98 82.7851C109.098 82.9295 107.797 81.0492 106.783 79.8975C106.509 79.279 106.023 78.7787 105.412 78.4869C104.802 78.1951 104.107 78.1309 103.454 78.306L103.455 78.2975Z" fill="#002855"/>
<path d="M105.911 77.5763C105.256 76.894 104.805 76.042 104.609 75.1167C104.505 74.2542 104.711 73.383 105.188 72.6572C105.608 71.9492 106.174 71.3381 106.847 70.8641C107.52 70.3902 108.286 70.0641 109.095 69.9072H109.383C108.08 70.9263 108.08 72.946 107.936 74.5375C108.03 75.2044 107.875 75.8826 107.502 76.4429C107.128 77.0032 106.561 77.4066 105.91 77.5763H105.911Z" fill="#002855"/>
<path d="M109.29 76.7074C109.097 77.6318 109.198 78.5932 109.579 79.4574C109.756 79.8607 110.015 80.2231 110.338 80.5218C110.662 80.8205 111.044 81.0492 111.461 81.1934C112.355 81.5189 113.309 81.6486 114.258 81.5736C115.207 81.4986 116.129 81.2206 116.961 80.7585C117.105 80.7585 117.105 80.6142 117.249 80.6142C115.367 80.9029 114.066 79.167 112.908 78.0085C112.51 77.4478 111.95 77.0223 111.303 76.7894C110.656 76.5565 109.954 76.5273 109.29 76.7057V76.7074Z" fill="#002855"/>
<path d="M111.593 75.8363C110.886 75.2905 110.386 74.5199 110.175 73.6516C109.964 72.7832 110.056 71.8691 110.435 71.0599C110.822 70.3236 111.356 69.6744 112.003 69.1521C112.65 68.6298 113.398 68.2455 114.199 68.0228H114.488C113.185 69.0419 113.469 71.2059 113.469 72.7992C113.56 73.4447 113.422 74.1018 113.08 74.6565C112.737 75.2112 112.211 75.6285 111.593 75.8363Z" fill="#002855"/>
<path d="M114.831 74.6817C114.69 75.6213 114.841 76.5815 115.266 77.4317C115.731 78.1857 116.449 78.7498 117.292 79.0233C118.185 79.3013 119.128 79.3802 120.054 79.2543C120.981 79.1284 121.868 78.8008 122.654 78.2946C122.799 78.2946 122.799 78.1502 122.943 78.1502C121.061 78.439 119.614 76.8474 118.457 75.8351C118.1 75.2326 117.535 74.782 116.868 74.5685C116.201 74.355 115.48 74.3935 114.839 74.6766L114.831 74.6817Z" fill="#002855"/>
<path d="M117.131 73.6669C116.365 73.0863 115.807 72.2745 115.539 71.3517C115.297 70.5403 115.348 69.6697 115.683 68.8922C116.011 68.1096 116.504 67.407 117.129 66.8324C117.753 66.2579 118.494 65.8248 119.301 65.563C119.446 65.563 119.446 65.563 119.59 65.4186C118.287 66.577 118.722 68.7478 118.722 70.195C118.919 70.8686 118.867 71.5907 118.574 72.2287C118.282 72.8668 117.769 73.378 117.131 73.6686V73.6669Z" fill="#002855"/>
<path d="M120.378 72.3642C120.29 73.3183 120.492 74.2768 120.958 75.1142C121.422 75.8391 122.148 76.3573 122.984 76.5614C123.897 76.788 124.848 76.8143 125.773 76.6383C126.697 76.4624 127.572 76.0885 128.338 75.5422L128.627 75.2535C126.745 75.8327 125.153 74.2343 123.996 73.2271C123.607 72.661 123.022 72.2591 122.354 72.0988C121.686 71.9385 120.982 72.0313 120.378 72.3591V72.3642Z" fill="#002855"/>
<path d="M122.666 71.0625C121.936 70.4747 121.343 69.7336 120.93 68.8917C120.689 68.0803 120.74 67.2098 121.075 66.4322C121.337 65.6825 121.757 64.9975 122.306 64.4233C122.855 63.8492 123.521 63.399 124.258 63.103C124.402 63.103 124.402 63.103 124.547 62.9586C123.527 64.117 124.112 66.1417 124.258 67.735C124.258 68.8934 124.258 70.3406 122.666 71.0642V71.0625Z" fill="#002855"/>
<path d="M114.831 74.6817C114.69 75.6213 114.841 76.5815 115.266 77.4317C115.731 78.1857 116.449 78.7498 117.292 79.0233C118.185 79.3013 119.128 79.3802 120.054 79.2543C120.981 79.1284 121.868 78.8008 122.654 78.2946C122.799 78.2946 122.799 78.1502 122.943 78.1502C121.061 78.439 119.614 76.8474 118.457 75.8351C118.1 75.2326 117.535 74.782 116.868 74.5685C116.201 74.355 115.48 74.3935 114.839 74.6766L114.831 74.6817Z" fill="#002855"/>
<path d="M117.131 73.6669C116.365 73.0863 115.807 72.2745 115.539 71.3517C115.297 70.5403 115.348 69.6697 115.683 68.8922C116.011 68.1096 116.504 67.407 117.129 66.8324C117.753 66.2579 118.494 65.8248 119.301 65.563C119.446 65.563 119.446 65.563 119.59 65.4186C118.287 66.577 118.722 68.7478 118.722 70.195C118.919 70.8686 118.867 71.5907 118.574 72.2287C118.282 72.8668 117.769 73.378 117.131 73.6686V73.6669Z" fill="#002855"/>
<path d="M120.378 72.3642C120.29 73.3183 120.492 74.2768 120.958 75.1142C121.422 75.8391 122.148 76.3573 122.984 76.5614C123.897 76.788 124.848 76.8143 125.773 76.6383C126.697 76.4624 127.572 76.0885 128.338 75.5422L128.627 75.2535C126.745 75.8327 125.153 74.2343 123.996 73.2271C123.607 72.661 123.022 72.2591 122.354 72.0988C121.686 71.9385 120.982 72.0313 120.378 72.3591V72.3642Z" fill="#002855"/>
<path d="M122.666 71.0625C121.936 70.4747 121.343 69.7336 120.93 68.8917C120.689 68.0803 120.74 67.2098 121.075 66.4322C121.337 65.6825 121.757 64.9975 122.306 64.4233C122.855 63.8492 123.521 63.399 124.258 63.103C124.402 63.103 124.402 63.103 124.547 62.9586C123.527 64.117 124.112 66.1417 124.258 67.735C124.258 68.8934 124.258 70.3406 122.666 71.0642V71.0625Z" fill="#002855"/>
<path d="M125.77 69.616C125.717 70.5406 125.971 71.4567 126.493 72.2216C126.743 72.5792 127.066 72.8801 127.44 73.1046C127.814 73.3291 128.231 73.4721 128.664 73.5244C129.629 73.6507 130.611 73.5604 131.537 73.2602C132.463 72.9599 133.31 72.4571 134.018 71.7885L134.307 71.4997C132.425 72.2233 130.689 70.9205 129.381 70.0525C128.896 69.6155 128.288 69.3392 127.641 69.2613C126.993 69.1834 126.337 69.3079 125.763 69.6177L125.77 69.616Z" fill="#002855"/>
<path d="M127.91 68.314C127.075 67.8661 126.413 67.1532 126.028 66.2876C125.719 65.5069 125.62 64.6591 125.739 63.8281C125.878 63.0508 126.183 62.3126 126.632 61.6634C127.082 61.0143 127.666 60.4694 128.345 60.0657C128.489 60.0657 128.489 60.0657 128.633 59.9214C127.765 61.2242 128.633 63.2506 128.922 64.6978C129.179 65.3282 129.219 66.0265 129.034 66.6819C128.85 67.3373 128.451 67.9123 127.903 68.3157L127.91 68.314Z" fill="#002855"/>
<path d="M130.729 66.4319C130.865 67.3914 131.267 68.2939 131.888 69.0376C132.541 69.6889 133.425 70.0553 134.347 70.0567C135.342 70.048 136.323 69.8236 137.222 69.399C138.122 68.9744 138.918 68.3596 139.557 67.5972L139.846 67.3084C138.11 68.3276 136.228 67.164 134.781 66.5848C134.206 66.1376 133.505 65.8829 132.778 65.857C132.05 65.8311 131.333 66.0352 130.728 66.4404L130.729 66.4319Z" fill="#002855"/>
<path d="M132.72 64.839C131.82 64.5247 131.054 63.9122 130.549 63.1031C130.138 62.3504 129.938 61.5006 129.97 60.6435C130.044 59.8575 130.274 59.0942 130.647 58.3983C131.02 57.7024 131.528 57.0879 132.141 56.5907C132.285 56.5907 132.285 56.4463 132.43 56.4463C131.85 57.7491 132.865 59.6295 133.449 61.0767C133.713 61.7052 133.785 62.3978 133.656 63.0673C133.528 63.7368 133.204 64.3532 132.725 64.839H132.72Z" fill="#002855"/>
<path d="M121.059 72.0756L120.915 71.9312C131.616 67.3009 143.926 57.0262 146.096 42.2638H146.241C144.214 57.1688 131.913 67.4452 121.059 72.0756Z" fill="#002855"/>
<path d="M125.77 69.616C125.717 70.5406 125.971 71.4567 126.493 72.2216C126.743 72.5792 127.066 72.8801 127.44 73.1046C127.814 73.3291 128.231 73.4721 128.664 73.5244C129.629 73.6507 130.611 73.5604 131.537 73.2602C132.463 72.9599 133.31 72.4571 134.018 71.7885L134.307 71.4997C132.425 72.2233 130.689 70.9205 129.381 70.0525C128.896 69.6155 128.288 69.3392 127.641 69.2613C126.993 69.1834 126.337 69.3079 125.763 69.6177L125.77 69.616Z" fill="#002855"/>
<path d="M127.91 68.314C127.075 67.8661 126.413 67.1532 126.028 66.2876C125.719 65.5069 125.62 64.6591 125.739 63.8281C125.878 63.0508 126.183 62.3126 126.632 61.6634C127.082 61.0143 127.666 60.4694 128.345 60.0657C128.489 60.0657 128.489 60.0657 128.633 59.9214C127.765 61.2242 128.633 63.2506 128.922 64.6978C129.179 65.3282 129.219 66.0265 129.034 66.6819C128.85 67.3373 128.451 67.9123 127.903 68.3157L127.91 68.314Z" fill="#002855"/>
<path d="M130.729 66.4319C130.865 67.3914 131.267 68.2938 131.888 69.0375C132.501 69.661 133.329 70.0257 134.203 70.0566C135.198 70.048 136.179 69.8236 137.078 69.3989C137.977 68.9743 138.774 68.3595 139.413 67.5971L139.701 67.3083C137.965 68.3275 136.083 67.164 134.636 66.5847C134.091 66.1366 133.413 65.8798 132.707 65.8537C132.002 65.8276 131.307 66.0337 130.729 66.4404V66.4319Z" fill="#002855"/>
<path d="M132.72 64.839C131.82 64.5247 131.054 63.9122 130.549 63.1031C130.138 62.3504 129.938 61.5006 129.97 60.6435C130.044 59.8575 130.274 59.0942 130.647 58.3983C131.02 57.7024 131.528 57.0879 132.141 56.5907C132.285 56.5907 132.285 56.4463 132.43 56.4463C131.85 57.7491 132.865 59.6295 133.449 61.0767C133.718 61.7042 133.794 62.3982 133.665 63.0689C133.536 63.7396 133.208 64.3562 132.725 64.839H132.72Z" fill="#002855"/>
<path d="M135.394 62.5254C135.645 63.4195 136.147 64.2229 136.841 64.8406C137.542 65.3792 138.419 65.6371 139.301 65.5642C140.289 65.4409 141.236 65.0891 142.065 64.5366C142.894 63.9841 143.583 63.2461 144.077 62.3811C144.092 62.2717 144.143 62.1704 144.221 62.0923C142.63 63.3951 140.603 62.5271 139.012 62.0923C138.439 61.7755 137.782 61.6471 137.133 61.7251C136.483 61.8032 135.875 62.0838 135.394 62.5271V62.5254Z" fill="#002855"/>
<path d="M137.089 60.6422C136.17 60.4481 135.35 59.9355 134.774 59.195C134.216 58.5523 133.908 57.7306 133.906 56.8798C133.833 56.1174 133.924 55.3482 134.174 54.6242C134.424 53.9001 134.826 53.2381 135.353 52.6826L135.497 52.5382C135.062 53.9854 136.365 55.577 137.233 57.0242C137.633 57.5502 137.837 58.199 137.811 58.8591C137.784 59.5193 137.529 60.1497 137.089 60.6422Z" fill="#002855"/>
<path d="M139.513 58.184C139.877 59.0557 140.479 59.8078 141.249 60.3548C141.639 60.5811 142.073 60.7237 142.521 60.7734C142.97 60.8232 143.424 60.7789 143.855 60.6435C144.81 60.3308 145.69 59.8217 146.438 59.149C147.186 58.4762 147.785 57.6546 148.196 56.7368C148.196 56.5924 148.34 56.448 148.34 56.302C146.893 57.7492 144.867 57.3211 143.275 57.0256C142.606 56.8041 141.883 56.7967 141.209 57.0043C140.535 57.2119 139.942 57.6242 139.513 58.184Z" fill="#002855"/>
<path d="M140.738 56.0108C139.799 55.8898 138.904 55.5398 138.132 54.9917C137.554 54.3881 137.153 53.6371 136.973 52.8209C136.791 52.0862 136.761 51.3219 136.886 50.5752C137.01 49.8285 137.286 49.1152 137.697 48.4793C137.697 48.3349 137.841 48.3349 137.841 48.1906C137.697 49.6377 139.144 51.0781 140.301 52.2434C140.793 52.7271 141.105 53.3647 141.184 54.0501C141.263 54.7355 141.106 55.4274 140.738 56.0108Z" fill="#002855"/>
<path d="M135.394 62.5254C135.645 63.4195 136.147 64.2229 136.841 64.8406C137.542 65.3792 138.419 65.6371 139.301 65.5642C140.289 65.4409 141.236 65.0891 142.065 64.5366C142.894 63.9841 143.583 63.2461 144.077 62.3811C144.159 62.3061 144.211 62.2031 144.221 62.0923C142.63 63.3951 140.603 62.5271 139.012 62.0923C138.439 61.7755 137.782 61.6471 137.133 61.7251C136.483 61.8032 135.875 62.0838 135.394 62.5271V62.5254Z" fill="#002855"/>
<path d="M137.089 60.6422C136.17 60.4481 135.35 59.9355 134.774 59.195C134.216 58.5523 133.908 57.7306 133.906 56.8798C133.833 56.1174 133.924 55.3482 134.174 54.6242C134.424 53.9001 134.826 53.2381 135.353 52.6826L135.497 52.5382C135.062 53.9854 136.365 55.577 137.233 57.0242C137.598 57.564 137.78 58.2061 137.754 58.8568C137.728 59.5076 137.495 60.1331 137.089 60.6422Z" fill="#002855"/>
<path d="M139.513 58.184C139.877 59.0557 140.479 59.8078 141.249 60.3548C141.639 60.5811 142.073 60.7237 142.521 60.7734C142.97 60.8232 143.424 60.7789 143.855 60.6435C144.821 60.3524 145.712 59.8513 146.462 59.1759C147.213 58.5005 147.805 57.6677 148.196 56.7368C148.186 56.6582 148.194 56.5783 148.219 56.503C148.244 56.4278 148.285 56.3591 148.34 56.302C146.893 57.7492 144.867 57.3211 143.275 57.0256C142.606 56.8041 141.883 56.7967 141.209 57.0043C140.535 57.2119 139.942 57.6242 139.513 58.184Z" fill="#002855"/>
<path d="M140.738 56.0108C139.789 55.9308 138.883 55.5768 138.132 54.9917C137.554 54.3881 137.153 53.6371 136.973 52.8209C136.791 52.0862 136.761 51.3219 136.886 50.5752C137.01 49.8285 137.286 49.1152 137.697 48.4793C137.697 48.3349 137.841 48.3349 137.841 48.1906C137.697 49.6377 139.144 51.0781 140.301 52.2434C140.793 52.7271 141.105 53.3647 141.184 54.0501C141.263 54.7355 141.106 55.4274 140.738 56.0108Z" fill="#002855"/>
<path d="M142.842 53.1173C143.329 53.9212 144.031 54.5731 144.868 54.9993C145.29 55.1535 145.738 55.2203 146.186 55.1954C146.634 55.1706 147.072 55.0547 147.474 54.8549C148.397 54.3823 149.202 53.7073 149.829 52.8803C150.455 52.0533 150.887 51.0956 151.092 50.0785C151.082 49.9998 151.09 49.92 151.115 49.8447C151.14 49.7695 151.181 49.7008 151.236 49.6437C150.078 51.3796 147.907 51.3796 146.31 51.3796C145.629 51.3276 144.945 51.4616 144.334 51.7674C143.722 52.0731 143.205 52.539 142.837 53.1156L142.842 53.1173Z" fill="#002855"/>
<path d="M143.856 50.8035C142.902 50.8918 141.943 50.6899 141.106 50.2243C140.391 49.78 139.834 49.1214 139.514 48.3422C139.228 47.6544 139.08 46.9166 139.08 46.1715C139.08 45.4263 139.228 44.6885 139.514 44.0007C139.514 43.8563 139.659 43.8563 139.659 43.7119C139.803 45.1591 141.541 46.3175 142.698 47.3299C143.296 47.6537 143.748 48.1928 143.963 48.8378C144.178 49.4829 144.14 50.1856 143.856 50.8035Z" fill="#002855"/>
<path d="M145.302 47.7686C145.894 48.4919 146.707 49.0004 147.617 49.2158C148.527 49.3617 149.459 49.1545 150.222 48.6366C151.039 47.9943 151.707 47.1836 152.181 46.2596C152.656 45.3357 152.926 44.3203 152.972 43.2826V42.8427C152.249 44.7247 150.085 45.1579 148.486 45.4483C147.773 45.4252 147.072 45.6409 146.495 46.0612C145.918 46.4816 145.498 47.0824 145.302 47.7686Z" fill="#002855"/>
<path d="M145.879 45.3042C144.97 45.546 144.008 45.4954 143.129 45.1598C142.35 44.8405 141.691 44.2836 141.247 43.5683C140.413 42.3394 140.101 40.8299 140.379 39.3711V39.0806C140.814 40.3834 142.694 41.2514 143.997 42.1194C144.668 42.2926 145.243 42.725 145.596 43.3218C145.949 43.9185 146.051 44.6309 145.879 45.3025V45.3042Z" fill="#002855"/>
<path d="M142.842 53.1173C143.329 53.9212 144.031 54.5731 144.868 54.9993C145.29 55.1535 145.738 55.2203 146.186 55.1954C146.634 55.1706 147.072 55.0547 147.474 54.8549C148.397 54.3823 149.202 53.7073 149.829 52.8803C150.455 52.0533 150.887 51.0956 151.092 50.0785C151.082 49.9998 151.09 49.92 151.115 49.8447C151.14 49.7695 151.181 49.7008 151.236 49.6437C150.078 51.3796 147.907 51.3796 146.31 51.3796C145.629 51.3276 144.945 51.4616 144.334 51.7674C143.722 52.0731 143.205 52.539 142.837 53.1156L142.842 53.1173Z" fill="#002855"/>
<path d="M143.856 50.8035C142.902 50.8918 141.943 50.6899 141.106 50.2243C140.391 49.78 139.834 49.1214 139.514 48.3422C139.228 47.6544 139.08 46.9166 139.08 46.1715C139.08 45.4263 139.228 44.6885 139.514 44.0007C139.514 43.8563 139.659 43.8563 139.659 43.7119C139.803 45.1591 141.541 46.3175 142.698 47.3299C143.287 47.6626 143.731 48.2021 143.945 48.8438C144.159 49.4855 144.127 50.1838 143.856 50.8035Z" fill="#002855"/>
<path d="M145.302 47.7686C145.894 48.4919 146.707 49.0004 147.617 49.2158C148.527 49.3617 149.459 49.1545 150.222 48.6366C151.039 47.9943 151.707 47.1836 152.181 46.2596C152.656 45.3357 152.926 44.3203 152.972 43.2826V42.8427C152.249 44.7247 150.085 45.1579 148.486 45.4483C147.773 45.4252 147.072 45.6409 146.495 46.0612C145.918 46.4816 145.498 47.0824 145.302 47.7686Z" fill="#002855"/>
<path d="M145.879 45.3042C144.97 45.546 144.008 45.4954 143.129 45.1598C142.35 44.8405 141.691 44.2836 141.247 43.5683C140.413 42.3394 140.101 40.8299 140.379 39.3711V39.0806C140.814 40.3834 142.694 41.2514 143.997 42.1194C144.668 42.2926 145.243 42.725 145.596 43.3218C145.949 43.9185 146.051 44.6309 145.879 45.3025V45.3042Z" fill="#002855"/>
<path d="M146.604 41.9751C147.329 42.6054 148.25 42.9655 149.21 42.9942C150.12 42.9371 150.986 42.5786 151.67 41.9751C152.353 41.1885 152.861 40.2655 153.16 39.2674C153.46 38.2694 153.543 37.2191 153.405 36.1863C153.415 36.1076 153.408 36.0278 153.383 35.9525C153.358 35.8773 153.316 35.8086 153.261 35.7515C152.826 37.7779 150.802 38.5015 149.208 39.0807C148.543 39.262 147.944 39.6306 147.482 40.1424C147.02 40.6543 146.715 41.288 146.603 41.9683L146.604 41.9751Z" fill="#002855"/>
<path d="M146.749 39.3752C145.902 39.8101 144.938 39.9625 143.999 39.8101C143.206 39.5704 142.468 39.1768 141.828 38.6516C141.29 38.1589 140.868 37.5529 140.593 36.8773C140.318 36.2016 140.196 35.4733 140.237 34.7449V34.4493C140.816 35.7522 142.987 36.1853 144.434 36.6201C144.768 36.6432 145.095 36.7334 145.394 36.8853C145.693 37.0371 145.958 37.2476 146.174 37.5042C146.39 37.7608 146.553 38.0582 146.651 38.3788C146.75 38.6993 146.783 39.0365 146.749 39.3701V39.3752Z" fill="#002855"/>
<path d="M146.896 35.8962C147.753 36.309 148.696 36.5077 149.646 36.4754C150.524 36.2767 151.297 35.7614 151.817 35.0282C152.373 34.1544 152.716 33.1618 152.816 32.1309C152.917 31.1 152.773 30.0599 152.396 29.0951C152.396 28.9507 152.252 28.8063 152.252 28.6602C152.252 30.831 150.37 31.8434 148.923 32.713C148.308 32.9839 147.788 33.4308 147.427 33.9974C147.066 34.5639 146.882 35.2247 146.896 35.8962Z" fill="#002855"/>
<path d="M146.604 33.4361C145.903 33.9748 145.049 34.2786 144.165 34.3046C143.281 34.3305 142.411 34.0771 141.679 33.5805C141.062 33.1723 140.537 32.6395 140.138 32.0164C139.74 31.3933 139.476 30.6937 139.363 29.9625V29.6738C140.231 30.8322 142.251 30.8322 143.849 31.121C144.511 31.1058 145.156 31.3327 145.662 31.7589C146.168 32.1852 146.501 32.7815 146.599 33.4361H146.604Z" fill="#002855"/>
<path d="M145.446 47.1826H145.3C147.378 40.6716 147.277 33.6606 145.011 27.2124C142.659 20.8335 138.725 15.1566 133.578 10.7141L133.722 10.5697C138.906 15.0388 142.845 20.7735 145.156 27.2158C147.495 33.6506 147.597 40.6862 145.444 47.186" fill="#002855"/>
<path d="M146.604 41.9751C147.329 42.6054 148.25 42.9655 149.21 42.9942C150.12 42.9371 150.986 42.5786 151.67 41.9751C152.353 41.1885 152.861 40.2655 153.16 39.2674C153.46 38.2694 153.543 37.2191 153.405 36.1863C153.415 36.1076 153.408 36.0278 153.383 35.9525C153.358 35.8773 153.316 35.8086 153.261 35.7515C152.826 37.7779 150.802 38.5015 149.208 39.0807C148.543 39.262 147.944 39.6306 147.482 40.1424C147.02 40.6543 146.715 41.288 146.603 41.9683L146.604 41.9751Z" fill="#002855"/>
<path d="M146.749 39.3752C145.902 39.8101 144.938 39.9625 143.999 39.8101C143.206 39.5704 142.468 39.1768 141.828 38.6516C141.29 38.1589 140.868 37.5529 140.593 36.8773C140.318 36.2016 140.196 35.4733 140.237 34.7449V34.4493C140.816 35.7522 142.987 36.1853 144.434 36.6201C144.768 36.6432 145.095 36.7334 145.394 36.8853C145.693 37.0371 145.958 37.2476 146.174 37.5042C146.39 37.7608 146.553 38.0582 146.651 38.3788C146.75 38.6993 146.783 39.0365 146.749 39.3701V39.3752Z" fill="#002855"/>
<path d="M146.897 36.0405C147.753 36.4533 148.697 36.652 149.647 36.6197C150.524 36.421 151.297 35.9057 151.817 35.1725C152.373 34.2987 152.716 33.306 152.816 32.2752C152.917 31.2443 152.773 30.2042 152.397 29.2393C152.397 29.095 152.252 28.9506 152.252 28.8045C152.252 30.9753 150.37 31.9876 148.923 32.8573C148.285 33.0948 147.741 33.5343 147.376 34.1088C147.01 34.6833 146.842 35.3616 146.897 36.0405Z" fill="#002855"/>
<path d="M146.604 33.4361C145.903 33.9748 145.049 34.2786 144.165 34.3046C143.281 34.3305 142.411 34.0771 141.679 33.5805C141.062 33.1723 140.537 32.6395 140.138 32.0164C139.74 31.3933 139.476 30.6937 139.363 29.9625V29.6738C140.231 30.8322 142.251 30.8322 143.849 31.121C144.511 31.1058 145.156 31.3327 145.662 31.7589C146.168 32.1852 146.501 32.7815 146.599 33.4361H146.604Z" fill="#002855"/>
<path d="M146.025 30.1075C146.919 30.397 147.881 30.397 148.775 30.1075C149.601 29.7171 150.267 29.0519 150.657 28.2255C151.062 27.2666 151.222 26.2216 151.121 25.1854C151.019 24.1493 150.661 23.1548 150.078 22.2924C150.078 22.148 149.933 22.148 149.933 22.0036C150.368 24.03 148.631 25.4772 147.474 26.4895C146.898 26.8783 146.452 27.431 146.194 28.0761C145.936 28.7212 145.878 29.4289 146.027 30.1075H146.025Z" fill="#002855"/>
<path d="M145.098 27.648C144.476 28.3827 143.595 28.8494 142.638 28.9508C141.477 29.1147 140.295 28.8534 139.312 28.2151C138.328 27.5768 137.608 26.6044 137.284 25.4772C137.284 25.3328 137.284 25.3328 137.14 25.1884C138.159 26.2076 140.323 25.912 141.916 25.7676C142.578 25.7048 143.242 25.8531 143.814 26.1912C144.386 26.5293 144.836 27.0399 145.099 27.6497L145.098 27.648Z" fill="#002855"/>
<path d="M144.143 24.4647C145.1 24.6257 146.083 24.4187 146.893 23.8855C147.27 23.6421 147.593 23.3239 147.842 22.9504C148.091 22.577 148.261 22.1564 148.34 21.7147C148.543 20.7257 148.518 19.7036 148.267 18.7257C148.017 17.7479 147.547 16.8398 146.893 16.0703L146.604 15.7816C147.328 17.6636 145.881 19.3995 144.869 20.7074C144.385 21.1902 144.058 21.8068 143.929 22.4775C143.8 23.1483 143.875 23.8422 144.145 24.4698L144.143 24.4647Z" fill="#002855"/>
<path d="M142.766 22.1491C142.561 22.5594 142.277 22.9244 141.928 23.2226C141.58 23.5208 141.176 23.7461 140.739 23.885C139.996 24.1484 139.194 24.1984 138.424 24.0294C137.727 23.827 137.081 23.4766 136.532 23.002C135.983 22.5274 135.542 21.9398 135.241 21.2794C135.241 21.135 135.241 21.135 135.096 20.9906C136.255 21.8586 138.135 21.135 139.582 20.8463C140.183 20.698 140.814 20.7443 141.386 20.9785C141.959 21.2127 142.442 21.6226 142.766 22.1491Z" fill="#002855"/>
<path d="M146.025 30.1075C146.919 30.397 147.881 30.397 148.775 30.1075C149.601 29.7171 150.267 29.0519 150.657 28.2255C151.027 27.2593 151.167 26.2203 151.067 25.1907C150.966 24.161 150.628 23.1688 150.078 22.2924C150.078 22.148 149.933 22.148 149.933 22.0036C150.368 24.03 148.631 25.4772 147.474 26.4895C146.898 26.8783 146.452 27.431 146.194 28.0761C145.936 28.7212 145.878 29.4289 146.027 30.1075H146.025Z" fill="#002855"/>
<path d="M145.098 27.648C144.476 28.3827 143.595 28.8494 142.638 28.9508C141.477 29.1147 140.295 28.8534 139.312 28.2151C138.328 27.5768 137.608 26.6044 137.284 25.4772C137.284 25.3328 137.284 25.3328 137.14 25.1884C138.159 26.2076 140.323 25.912 141.916 25.7676C142.578 25.7048 143.242 25.8531 143.814 26.1912C144.386 26.5293 144.836 27.0399 145.099 27.6497L145.098 27.648Z" fill="#002855"/>
<path d="M144.143 24.4647C145.1 24.6257 146.083 24.4187 146.893 23.8855C147.27 23.6421 147.593 23.3239 147.842 22.9504C148.091 22.577 148.261 22.1564 148.34 21.7147C148.543 20.7257 148.518 19.7036 148.267 18.7257C148.017 17.7479 147.547 16.8398 146.893 16.0703L146.604 15.7816C147.328 17.6636 145.881 19.3995 144.869 20.7074C144.385 21.1902 144.058 21.8068 143.929 22.4775C143.8 23.1483 143.875 23.8422 144.145 24.4698L144.143 24.4647Z" fill="#002855"/>
<path d="M141.249 19.253C142.217 19.2658 143.152 18.9001 143.854 18.2338C144.491 17.615 144.899 16.799 145.013 15.9187C145.064 14.9086 144.882 13.9002 144.479 12.9723C144.077 12.0444 143.465 11.2222 142.692 10.5698L142.404 10.2811C143.272 12.017 142.115 13.899 141.385 15.3462C141.002 15.9206 140.786 16.5896 140.761 17.2792C140.735 17.9688 140.901 18.6519 141.24 19.253H141.249Z" fill="#002855"/>
<path d="M137.396 14.4784C138.213 14.2988 138.964 13.898 139.567 13.32C140.041 12.6959 140.295 11.9328 140.291 11.1492C140.225 10.3092 139.969 9.49512 139.543 8.76815C139.117 8.04119 138.532 7.42024 137.831 6.95199C137.687 6.95199 137.687 6.80762 137.543 6.80762C138.562 8.25481 137.687 9.99076 137.254 11.1492C136.889 11.6352 136.704 12.2326 136.731 12.8396C136.757 13.4466 136.993 14.0257 137.398 14.4784H137.396Z" fill="#002855"/>
<path d="M143.477 23.8855C140.566 17.7566 136.191 12.4387 130.738 8.4012C127.988 6.37479 125.238 4.49446 122.778 3.04727L122.923 2.90289C125.238 4.49446 128.132 6.23211 130.882 8.40289C136.31 12.5626 140.716 17.9076 143.763 24.0298L143.477 23.8855Z" fill="#002855"/>
<path d="M141.249 19.253C142.177 19.2648 143.077 18.9304 143.773 18.3149C144.468 17.6995 144.91 16.847 145.011 15.9238C145.064 14.913 144.882 13.9037 144.48 12.9748C144.077 12.046 143.466 11.2229 142.692 10.5698L142.404 10.2811C143.272 12.017 142.115 13.899 141.385 15.3462C141.002 15.9206 140.786 16.5896 140.761 17.2792C140.735 17.9688 140.901 18.6519 141.24 19.253H141.249Z" fill="#002855"/>
<path d="M139.406 17.2277C139.054 17.9456 138.562 18.5856 137.959 19.1097C137.349 19.4735 136.637 19.6263 135.932 19.5445C135.291 19.4424 134.678 19.2098 134.131 18.8613C133.583 18.5128 133.113 18.0556 132.749 17.5181C132.749 17.3738 132.749 17.3738 132.605 17.2294C133.763 17.8086 135.21 17.085 136.511 16.5058C136.748 16.3607 137.011 16.2642 137.285 16.2221C137.559 16.1799 137.838 16.1929 138.107 16.2603C138.376 16.3277 138.629 16.4482 138.851 16.6146C139.073 16.781 139.259 16.99 139.399 17.2294L139.406 17.2277Z" fill="#002855"/>
<path d="M137.396 14.4784C138.213 14.2988 138.964 13.898 139.567 13.32C140.041 12.6959 140.295 11.9328 140.291 11.1492C140.225 10.3092 139.969 9.49512 139.543 8.76815C139.117 8.04119 138.532 7.42024 137.831 6.95199C137.687 6.95199 137.687 6.80762 137.543 6.80762C138.562 8.25481 137.687 9.99076 137.254 11.1492C136.889 11.6352 136.704 12.2326 136.731 12.8396C136.757 13.4466 136.993 14.0257 137.398 14.4784H137.396Z" fill="#002855"/>
<path d="M135.623 12.7428C135.471 13.4873 135.061 14.154 134.465 14.6249C133.934 15.0508 133.261 15.258 132.583 15.2041C131.979 15.2093 131.381 15.0824 130.831 14.8325C130.281 14.5825 129.793 14.2154 129.399 13.7569L129.255 13.6125C130.413 14.0474 131.715 13.1777 132.873 12.5934C133.05 12.3984 133.269 12.2452 133.512 12.1449C133.756 12.0446 134.019 11.9998 134.282 12.0136C134.545 12.0274 134.802 12.0996 135.034 12.2248C135.266 12.35 135.467 12.5252 135.623 12.7377V12.7428Z" fill="#002855"/>
<path d="M133.459 10.5717C134.171 10.2741 134.812 9.83022 135.341 9.26893C135.554 8.98152 135.702 8.6521 135.777 8.30265C135.852 7.95321 135.852 7.59178 135.776 7.24252C135.587 6.4846 135.245 5.77307 134.773 5.15113C134.3 4.52919 133.706 4.00982 133.026 3.62455C132.882 3.62455 132.882 3.48016 132.737 3.48016C133.756 4.63859 133.172 6.36775 132.882 7.67736C132.667 8.15941 132.608 8.69609 132.712 9.21332C132.816 9.73054 133.077 10.2028 133.461 10.5649L133.459 10.5717Z" fill="#002855"/>
<path d="M131.542 8.98117C131.44 9.67013 131.074 10.2926 130.522 10.7171C130.015 11.1032 129.418 11.3524 128.786 11.4407C128.192 11.4768 127.597 11.3784 127.046 11.1528C126.495 10.9273 126.002 10.5804 125.603 10.1379L125.464 9.99352C126.622 10.4284 127.779 9.4143 128.793 8.97437C129.166 8.62557 129.658 8.43152 130.168 8.43152C130.679 8.43152 131.17 8.62557 131.543 8.97437L131.542 8.98117Z" fill="#002855"/>
<path d="M129.226 7.24339C129.793 6.96597 130.252 6.50756 130.529 5.94058C130.672 5.67358 130.747 5.37544 130.747 5.07261C130.747 4.76978 130.672 4.47163 130.529 4.20463C130.322 3.6406 129.995 3.12838 129.571 2.70362C129.146 2.27886 128.634 1.95176 128.07 1.74509C127.925 1.74509 127.925 1.74509 127.925 1.60071C128.793 2.46868 128.504 3.7715 128.36 4.92993C128.224 5.35726 128.236 5.81789 128.393 6.23778C128.551 6.65767 128.845 7.01245 129.228 7.24509L129.226 7.24339Z" fill="#002855"/>
<path d="M125.719 4.63697C125.929 4.40244 126.088 4.12744 126.188 3.8289C126.287 3.53036 126.325 3.21459 126.298 2.90103C126.26 2.32627 126.059 1.77423 125.719 1.30946C125.3 0.893525 124.803 0.564356 124.256 0.340799C123.71 0.117243 123.124 0.00369295 122.534 0.00664803H122.245C123.264 0.441485 123.548 1.7426 123.837 2.75665C124.125 3.62462 124.56 4.49259 125.719 4.63867V4.63697Z" fill="#002855"/>
<path d="M127.46 5.79515C127.321 6.48166 127.024 7.12622 126.592 7.67717C126.175 8.11637 125.604 8.37596 125 8.40077C124.37 8.44365 123.738 8.3346 123.159 8.08277C122.58 7.83093 122.069 7.44368 121.671 6.95358L121.526 6.8092C122.685 7.38842 123.842 6.37436 124.856 5.94123C125.016 5.7592 125.212 5.61092 125.43 5.50499C125.648 5.39906 125.886 5.33759 126.128 5.32416C126.371 5.31072 126.613 5.3456 126.842 5.42674C127.071 5.50789 127.281 5.63369 127.461 5.79685L127.46 5.79515Z" fill="#002855"/>
<path d="M123.38 3.33679C123.11 3.82415 122.709 4.22565 122.221 4.49522C121.764 4.68558 121.26 4.73583 120.774 4.63959C120.267 4.52974 119.794 4.30211 119.392 3.97514C118.989 3.64817 118.67 3.23105 118.459 2.75757C118.459 2.73891 118.455 2.72048 118.447 2.70334C118.44 2.68621 118.429 2.67072 118.416 2.65777C118.402 2.64481 118.386 2.63465 118.369 2.62787C118.352 2.62109 118.333 2.61784 118.314 2.61829C119.038 3.1975 120.341 2.90704 121.202 2.76266C121.571 2.57184 121.998 2.52545 122.399 2.63255C122.801 2.73966 123.148 2.99257 123.373 3.34188L123.38 3.33679Z" fill="#002855"/>
<path d="M123.385 3.19652C122.805 1.74933 121.214 2.17737 120.055 2.47293C119.767 2.47293 119.476 2.6173 119.187 2.6173C118.937 2.63982 118.686 2.58969 118.464 2.47293C118.648 2.96851 118.946 3.41447 119.332 3.77573" fill="#002855"/>
<path d="M86.9281 82.0598C87.1936 82.9791 87.09 83.9657 86.6394 84.8098C86.2728 85.5592 85.7259 86.2058 85.0478 86.6918C84.3834 87.0997 83.6401 87.3623 82.8669 87.4621C82.0936 87.5619 81.3081 87.4968 80.5618 87.271C80.4174 87.271 80.4175 87.1266 80.2731 87.1266C81.7203 86.8379 82.7326 84.9558 83.6023 83.653C83.8764 83.0345 84.3625 82.5342 84.973 82.2424C85.5834 81.9506 86.278 81.8864 86.9315 82.0615L86.9281 82.0598Z" fill="#002855"/>
<path d="M85.8105 82.061C85.5686 82.97 85.6191 83.9322 85.9548 84.811C86.3214 85.5604 86.8683 86.207 87.5464 86.693C88.22 87.143 88.9893 87.4297 89.7931 87.5302C90.5969 87.6308 91.4131 87.5424 92.1767 87.2722C92.3211 87.2722 92.3211 87.1278 92.4655 87.1278C90.5835 86.9834 89.8599 84.957 88.9919 83.6542C88.7414 83.0505 88.2817 82.5573 87.6971 82.2649C87.1125 81.9726 86.4421 81.9008 85.8088 82.0627L85.8105 82.061Z" fill="#002855"/>
<path d="M84.2698 81.1851V81.0408C82.7977 80.5696 81.2999 80.1828 79.7838 79.8823C78.3366 79.5936 76.8962 79.4475 75.5866 79.3031C73.7046 79.0144 71.6799 78.7239 69.7979 78.284V78.4283C71.6799 78.8632 73.7046 79.1519 75.5866 79.4475C77.0338 79.5919 78.3366 79.8823 79.7838 80.0267C81.3111 80.2764 82.8126 80.6641 84.2698 81.1851Z" fill="#002855"/>
<path d="M84.4617 81.0481C85.1553 80.4304 85.6575 79.627 85.9089 78.7329C85.9959 77.8714 85.792 77.0055 85.3297 76.2734C84.7346 75.4763 83.9738 74.8177 83.0996 74.343C82.2255 73.8682 81.2589 73.5886 80.2663 73.5233H79.8314C81.7134 74.2469 82.0022 76.5621 82.1466 78.0093C82.1481 78.699 82.3752 79.3693 82.7932 79.918C83.2112 80.4666 83.7972 80.8635 84.4617 81.0481Z" fill="#002855"/>
<path d="M84.4617 81.0481C85.1553 80.4304 85.6575 79.627 85.9089 78.7329C85.9959 77.8714 85.792 77.0055 85.3297 76.2734C84.7346 75.4763 83.9738 74.8177 83.0996 74.343C82.2255 73.8682 81.2589 73.5886 80.2663 73.5233H79.8314C81.7134 74.2469 82.0022 76.5621 82.1466 78.0093C82.1481 78.699 82.3752 79.3693 82.7932 79.918C83.2112 80.4666 83.7972 80.8635 84.4617 81.0481Z" fill="#002855"/>
<path d="M81.0952 80.1868C81.4098 81.0869 81.358 82.0746 80.9508 82.9368C80.6315 83.716 80.0746 84.3746 79.3593 84.8189C78.6816 85.2579 77.919 85.5493 77.1212 85.674C76.3234 85.7987 75.5083 85.7538 74.7289 85.5424C74.6196 85.5269 74.5182 85.4762 74.4402 85.3981C76.3222 85.2537 76.8997 83.2273 77.7694 81.7801C78.1154 81.2255 78.6124 80.7811 79.2021 80.4992C79.7918 80.2173 80.4498 80.1095 81.0986 80.1885L81.0952 80.1868Z" fill="#002855"/>
<path d="M78.6289 79.6031C79.2593 78.8783 79.6194 77.9576 79.6481 76.9975C79.6472 76.1027 79.341 75.2351 78.7801 74.5379C78.2067 73.8762 77.4925 73.3511 76.6898 73.001C75.8872 72.651 75.0164 72.4849 74.1413 72.5149H73.8525C75.2997 73.2385 75.5885 75.2649 76.0233 76.8565C76.0594 77.5499 76.3416 78.2077 76.8192 78.7118C77.2968 79.2158 77.9385 79.5331 78.6289 79.6065V79.6031Z" fill="#002855"/>
<path d="M75.2622 79.3184C75.5797 80.1982 75.6788 81.1419 75.551 82.0684C75.2883 82.9169 74.7215 83.6385 73.9594 84.0948C73.1399 84.5908 72.2159 84.8884 71.2609 84.9639C70.306 85.0394 69.3467 84.8907 68.4594 84.5296C68.315 84.5296 68.315 84.3853 68.1707 84.3853C70.0527 84.2409 71.2094 82.3589 72.0774 81.0561C72.3386 80.4529 72.7939 79.9543 73.3709 79.6395C73.948 79.3246 74.6136 79.2116 75.2622 79.3184Z" fill="#002855"/>
<path d="M72.655 78.8765C73.2263 78.1174 73.5788 77.2163 73.6741 76.2709C73.6781 75.443 73.4253 74.6341 72.9505 73.9558C72.4788 73.302 71.8723 72.757 71.172 72.3576C70.4717 71.9582 69.6938 71.7137 68.8909 71.6406H68.6022C69.905 72.5086 70.0494 74.6794 70.3381 76.1266C70.3505 76.7808 70.5872 77.411 71.0086 77.9116C71.4301 78.4122 72.0107 78.7529 72.6533 78.8765H72.655Z" fill="#002855"/>
<path d="M86.6257 82.3511L86.7701 82.2067C84.0201 80.4708 79.2454 79.7472 74.6134 79.0236C71.8278 78.7013 69.0706 78.1693 66.3651 77.432C59.8477 75.5262 53.5435 72.9558 47.5516 69.7612L47.4072 69.9056C53.3877 73.124 59.6945 75.695 66.2207 77.5747C68.9262 78.312 71.6834 78.844 74.469 79.1663C79.0993 79.8899 83.7314 80.6134 86.6257 82.3494" fill="#002855"/>
<path d="M81.0952 80.1868C81.4069 81.0873 81.3551 82.0739 80.9508 82.9368C80.6315 83.716 80.0746 84.3746 79.3593 84.8189C78.6816 85.2579 77.919 85.5493 77.1212 85.674C76.3234 85.7987 75.5083 85.7538 74.7289 85.5424C74.6196 85.5269 74.5182 85.4762 74.4402 85.3981C76.3222 85.2537 76.8997 83.2273 77.7694 81.7801C78.1154 81.2255 78.6124 80.7811 79.2021 80.4992C79.7918 80.2173 80.4498 80.1095 81.0986 80.1885L81.0952 80.1868Z" fill="#002855"/>
<path d="M78.6289 79.5998C79.2592 78.8749 79.6193 77.9543 79.6481 76.9942C79.6473 76.0994 79.3411 75.2317 78.7801 74.5346C78.1911 73.8813 77.4772 73.3525 76.6804 72.9797C75.8837 72.6068 75.0203 72.3974 74.1413 72.3639H73.8525C75.2997 73.0875 75.5885 75.1139 76.0233 76.7054C76.0326 77.4212 76.3022 78.109 76.7817 78.6405C77.2613 79.1719 77.9179 79.5105 78.6289 79.593V79.5998Z" fill="#002855"/>
<path d="M75.2622 79.3184C75.5797 80.1982 75.6788 81.1419 75.551 82.0684C75.2883 82.9169 74.7215 83.6385 73.9594 84.0948C73.1399 84.5908 72.2159 84.8884 71.2609 84.9639C70.306 85.0394 69.3467 84.8907 68.4594 84.5296C68.315 84.5296 68.315 84.3853 68.1707 84.3853C70.0527 84.2409 71.2094 82.3589 72.0774 81.0561C72.3386 80.4529 72.7939 79.9543 73.3709 79.6395C73.948 79.3246 74.6136 79.2116 75.2622 79.3184Z" fill="#002855"/>
<path d="M72.655 78.8765C73.2263 78.1174 73.5788 77.2163 73.6741 76.2709C73.6781 75.443 73.4253 74.6341 72.9505 73.9558C72.4788 73.302 71.8723 72.757 71.172 72.3576C70.4717 71.9582 69.6938 71.7137 68.8909 71.6406H68.6022C69.905 72.5086 70.0494 74.6794 70.3381 76.1266C70.3505 76.7808 70.5872 77.411 71.0086 77.9116C71.4301 78.4122 72.0107 78.7529 72.6533 78.8765H72.655Z" fill="#002855"/>
<path d="M69.2815 78.2975C69.5715 79.1912 69.5715 80.1537 69.2815 81.0475C68.9056 81.8353 68.3005 82.4913 67.5456 82.9295C66.6823 83.3234 65.7445 83.5273 64.7956 83.5273C63.8467 83.5273 62.9089 83.3234 62.0456 82.9295C61.9012 82.9295 61.9012 82.7851 61.7568 82.7851C63.6389 82.9295 64.94 81.0492 65.954 79.8975C66.2282 79.279 66.7143 78.7787 67.3247 78.4869C67.9351 78.1951 68.6297 78.1309 69.2832 78.306L69.2815 78.2975Z" fill="#002855"/>
<path d="M66.8255 77.5763C67.4807 76.894 67.9319 76.042 68.1283 75.1167C68.2153 74.2552 68.0114 73.3894 67.5491 72.6572C67.1288 71.9492 66.5634 71.3381 65.89 70.8641C65.2167 70.3902 64.4507 70.0641 63.6424 69.9072H63.3519C64.6547 70.9263 64.6547 72.946 64.7991 74.5375C64.7349 75.2 64.9016 75.8643 65.2708 76.418C65.6401 76.9717 66.1893 77.3809 66.8255 77.5763Z" fill="#002855"/>
<path d="M63.4487 76.7074C63.6411 77.6318 63.5402 78.5932 63.1599 79.4574C62.9826 79.8607 62.7239 80.2231 62.4001 80.5218C62.0762 80.8205 61.6942 81.0492 61.2779 81.1934C60.3835 81.5189 59.4295 81.6486 58.4806 81.5736C57.5318 81.4986 56.6101 81.2206 55.7779 80.7585C55.6335 80.7585 55.6335 80.6142 55.4891 80.6142C57.3712 80.9029 58.6723 79.167 59.8307 78.0085C60.2285 77.4478 60.7884 77.0223 61.4353 76.7894C62.0821 76.5565 62.7847 76.5273 63.4487 76.7057V76.7074Z" fill="#002855"/>
<path d="M61.137 75.8363C61.8444 75.2905 62.3447 74.5199 62.5553 73.6516C62.7659 72.7832 62.6742 71.8691 62.2954 71.0599C61.9091 70.3243 61.3766 69.6755 60.7305 69.1532C60.0844 68.631 59.3383 68.2463 58.5382 68.0228H58.2494C59.5522 69.0419 59.2685 71.2059 59.2685 72.7992C59.2088 73.4395 59.3587 74.0819 59.6957 74.6297C60.0327 75.1774 60.5385 75.6009 61.137 75.8363Z" fill="#002855"/>
<path d="M74.3724 79.1665V79.0221C67.6763 78.0556 61.1486 76.1557 54.9797 73.3778C48.6791 70.8646 42.855 67.2919 37.7595 62.8143L37.6151 62.9587C42.541 67.8846 48.7578 70.9182 54.837 73.6597C61.072 76.361 67.6422 78.2109 74.3707 79.1597" fill="#002855"/>
<path d="M69.2815 78.2975C69.5715 79.1913 69.5715 80.1538 69.2815 81.0475C68.9056 81.8354 68.3005 82.4913 67.5456 82.9296C66.6823 83.3235 65.7445 83.5273 64.7956 83.5273C63.8467 83.5273 62.9089 83.3235 62.0456 82.9296C61.9012 82.9296 61.9012 82.7852 61.7568 82.7852C63.6389 82.9296 64.94 81.0492 65.954 79.8976C66.2414 79.29 66.7294 78.8 67.3358 78.5101C67.9422 78.2202 68.6299 78.1482 69.2832 78.306L69.2815 78.2975Z" fill="#002855"/>
<path d="M66.8255 77.5763C67.4807 76.894 67.9319 76.042 68.1283 75.1167C68.2153 74.2552 68.0114 73.3894 67.5491 72.6572C67.1288 71.9492 66.5634 71.3381 65.89 70.8641C65.2167 70.3902 64.4507 70.0641 63.6424 69.9072H63.3519C64.6547 70.9263 64.6547 72.946 64.7991 74.5375C64.7349 75.2 64.9016 75.8643 65.2708 76.418C65.6401 76.9717 66.1893 77.3809 66.8255 77.5763Z" fill="#002855"/>
<path d="M63.4487 76.7074C63.6411 77.6318 63.5402 78.5932 63.1599 79.4574C62.9826 79.8607 62.7239 80.2231 62.4001 80.5218C62.0762 80.8205 61.6942 81.0492 61.2779 81.1934C60.3835 81.5189 59.4295 81.6486 58.4806 81.5736C57.5318 81.4986 56.6101 81.2206 55.7779 80.7585C55.6335 80.7585 55.6335 80.6142 55.4891 80.6142C57.3712 80.9029 58.6723 79.167 59.8307 78.0085C60.2285 77.4478 60.7884 77.0223 61.4353 76.7894C62.0821 76.5565 62.7847 76.5273 63.4487 76.7057V76.7074Z" fill="#002855"/>
<path d="M61.137 75.8363C61.8444 75.2905 62.3447 74.5199 62.5553 73.6516C62.7659 72.7832 62.6742 71.8691 62.2954 71.0599C61.9091 70.3243 61.3766 69.6755 60.7305 69.1532C60.0844 68.631 59.3383 68.2463 58.5382 68.0228H58.2494C59.5522 69.0419 59.2685 71.2059 59.2685 72.7992C59.2088 73.4395 59.3587 74.0819 59.6957 74.6297C60.0327 75.1774 60.5385 75.6009 61.137 75.8363Z" fill="#002855"/>
<path d="M57.9062 74.6817C58.0473 75.6213 57.8955 76.5815 57.4713 77.4317C57.0059 78.1857 56.2877 78.7498 55.4449 79.0233C54.5534 79.3 53.6121 79.3782 52.6872 79.2523C51.7623 79.1264 50.8761 78.7995 50.091 78.2946C49.9466 78.2946 49.9466 78.1502 49.8022 78.1502C51.6843 78.439 53.1315 76.8474 54.2882 75.8351C54.645 75.2326 55.2103 74.782 55.8771 74.5685C56.5439 74.355 57.2658 74.3935 57.9062 74.6766V74.6817Z" fill="#002855"/>
<path d="M55.6063 73.6669C56.3719 73.0863 56.93 72.2745 57.1978 71.3517C57.4395 70.5403 57.3884 69.6697 57.0535 68.8922C56.7255 68.1096 56.2325 67.407 55.6081 66.8324C54.9837 66.2579 54.2426 65.8248 53.4355 65.563C53.2911 65.563 53.2911 65.563 53.1467 65.4186C54.4495 66.577 54.1659 68.7478 54.0147 70.195C53.8176 70.8686 53.8701 71.5907 54.1624 72.2287C54.4548 72.8668 54.9674 73.378 55.6063 73.6686V73.6669Z" fill="#002855"/>
<path d="M52.3637 72.3642C52.452 73.3183 52.2501 74.2768 51.7845 75.1142C51.32 75.8391 50.5944 76.3573 49.758 76.5614C48.845 76.788 47.8936 76.8143 46.9694 76.6383C46.0452 76.4624 45.1701 76.0885 44.4041 75.5422L44.1154 75.2535C45.9974 75.8327 47.589 74.2343 48.7457 73.2271C49.135 72.661 49.7201 72.2591 50.3881 72.0988C51.0562 71.9385 51.7599 72.0313 52.3637 72.3591V72.3642Z" fill="#002855"/>
<path d="M50.0706 71.0625C50.8012 70.4747 51.3937 69.7336 51.8066 68.8917C52.0483 68.0803 51.9972 67.2098 51.6622 66.4322C51.3996 65.6825 50.9797 64.9975 50.4307 64.4233C49.8817 63.8492 49.2163 63.399 48.4791 63.103C48.3347 63.103 48.3347 63.103 48.1903 62.9586C49.2095 64.117 48.6251 66.1417 48.4791 67.735C48.3844 68.3852 48.4852 69.0488 48.7686 69.6416C49.052 70.2344 49.5052 70.7296 50.0706 71.0642V71.0625Z" fill="#002855"/>
<path d="M57.9062 74.6817C58.0473 75.6213 57.8955 76.5815 57.4713 77.4317C57.0059 78.1857 56.2877 78.7498 55.4449 79.0233C54.5534 79.3 53.6121 79.3782 52.6872 79.2523C51.7623 79.1264 50.8761 78.7995 50.091 78.2946C49.9466 78.2946 49.9466 78.1502 49.8022 78.1502C51.6843 78.439 53.1315 76.8474 54.2882 75.8351C54.645 75.2326 55.2103 74.782 55.8771 74.5685C56.5439 74.355 57.2658 74.3935 57.9062 74.6766V74.6817Z" fill="#002855"/>
<path d="M55.6063 73.6669C56.3719 73.0863 56.93 72.2745 57.1978 71.3517C57.4395 70.5403 57.3884 69.6697 57.0535 68.8922C56.7255 68.1096 56.2325 67.407 55.6081 66.8324C54.9837 66.2579 54.2426 65.8248 53.4355 65.563C53.2911 65.563 53.2911 65.563 53.1467 65.4186C54.4495 66.577 54.0147 68.7478 54.0147 70.195C53.8176 70.8686 53.8701 71.5907 54.1624 72.2287C54.4548 72.8668 54.9674 73.378 55.6063 73.6686V73.6669Z" fill="#002855"/>
<path d="M52.3637 72.3642C52.452 73.3183 52.2501 74.2768 51.7845 75.1142C51.32 75.8391 50.5944 76.3573 49.758 76.5614C48.845 76.788 47.8936 76.8143 46.9694 76.6383C46.0452 76.4624 45.1701 76.0885 44.4041 75.5422L44.1154 75.2535C45.9974 75.8327 47.589 74.2343 48.7457 73.2271C49.135 72.661 49.7201 72.2591 50.3881 72.0988C51.0562 71.9385 51.7599 72.0313 52.3637 72.3591V72.3642Z" fill="#002855"/>
<path d="M50.0706 71.0625C50.8012 70.4747 51.3937 69.7336 51.8066 68.8917C52.0483 68.0803 51.9972 67.2098 51.6622 66.4322C51.3996 65.6825 50.9797 64.9975 50.4307 64.4233C49.8817 63.8492 49.2163 63.399 48.4791 63.103C48.3347 63.103 48.3347 63.103 48.1903 62.9586C49.2095 64.117 48.6251 66.1417 48.4791 67.735C48.3844 68.3852 48.4852 69.0488 48.7686 69.6416C49.052 70.2344 49.5052 70.7296 50.0706 71.0642V71.0625Z" fill="#002855"/>
<path d="M46.9691 69.616C47.0221 70.5406 46.7676 71.4567 46.2455 72.2216C45.9956 72.5792 45.6731 72.8801 45.2991 73.1046C44.925 73.3291 44.5078 73.4721 44.0747 73.5244C43.1094 73.6507 42.1281 73.5604 41.202 73.2602C40.2759 72.9599 39.4283 72.4571 38.7208 71.7885L38.432 71.4997C40.314 72.2233 42.05 70.9205 43.3579 70.0525C43.8424 69.6155 44.4502 69.3392 45.0979 69.2613C45.7457 69.1834 46.4017 69.3079 46.9759 69.6177L46.9691 69.616Z" fill="#002855"/>
<path d="M44.8254 68.314C45.6602 67.8661 46.3223 67.1532 46.7074 66.2876C47.016 65.5069 47.1156 64.6591 46.9962 63.8281C46.857 63.0508 46.5523 62.3126 46.1027 61.6634C45.6531 61.0143 45.0692 60.4694 44.3905 60.0657C44.2462 60.0657 44.2462 60.0657 44.1018 59.9214C44.9698 61.2242 44.1018 63.2506 43.813 64.6978C43.5558 65.3282 43.5163 66.0265 43.701 66.6819C43.8856 67.3373 44.2837 67.9123 44.8322 68.3157L44.8254 68.314Z" fill="#002855"/>
<path d="M42.0057 66.4319C41.8698 67.3914 41.4686 68.2939 40.8472 69.0376C40.1942 69.6889 39.31 70.0553 38.3877 70.0567C37.3931 70.048 36.4123 69.8236 35.5129 69.399C34.6134 68.9744 33.8169 68.3596 33.1782 67.5972L32.8894 67.3084C34.6254 68.3276 36.5074 67.164 37.9546 66.5848C38.5291 66.1376 39.23 65.8829 39.9576 65.857C40.6852 65.8311 41.4025 66.0352 42.0074 66.4404L42.0057 66.4319Z" fill="#002855"/>
<path d="M40.0184 64.839C40.9187 64.5247 41.6846 63.9122 42.1892 63.1031C42.6005 62.3504 42.8006 61.5006 42.7684 60.6435C42.6944 59.8575 42.4643 59.0942 42.0915 58.3983C41.7188 57.7024 41.2109 57.0879 40.5976 56.5907C40.4532 56.5907 40.4532 56.4463 40.3088 56.4463C40.8881 57.7491 39.874 59.6295 39.2897 61.0767C39.0256 61.7052 38.9534 62.3978 39.0822 63.0673C39.211 63.7368 39.5349 64.3532 40.0133 64.839H40.0184Z" fill="#002855"/>
<path d="M51.6775 72.0756L51.8219 71.9312C40.968 67.2992 28.8113 57.0245 26.6405 42.2638H26.4961C28.5225 57.1688 40.8236 67.4452 51.6775 72.0756Z" fill="#002855"/>
<path d="M46.9691 69.616C47.0221 70.5406 46.7676 71.4567 46.2455 72.2216C45.9956 72.5792 45.6731 72.8801 45.2991 73.1046C44.925 73.3291 44.5078 73.4721 44.0747 73.5244C43.1094 73.6507 42.1281 73.5604 41.202 73.2602C40.2759 72.9599 39.4283 72.4571 38.7208 71.7885L38.432 71.4997C40.314 72.2233 42.05 70.9205 43.3579 70.0525C43.8424 69.6155 44.4502 69.3392 45.0979 69.2613C45.7457 69.1834 46.4017 69.3079 46.9759 69.6177L46.9691 69.616Z" fill="#002855"/>
<path d="M44.8254 68.314C45.6602 67.8661 46.3223 67.1532 46.7074 66.2876C47.016 65.5069 47.1156 64.6591 46.9962 63.8281C46.857 63.0508 46.5523 62.3126 46.1027 61.6634C45.6531 61.0143 45.0692 60.4694 44.3905 60.0657C44.2462 60.0657 44.2462 59.9214 44.1018 59.9214C44.9698 61.2242 44.1018 63.2506 43.813 64.6978C43.5558 65.3282 43.5163 66.0265 43.701 66.6819C43.8856 67.3373 44.2837 67.9123 44.8322 68.3157L44.8254 68.314Z" fill="#002855"/>
<path d="M42.0057 66.4319C41.8698 67.3914 41.4686 68.2939 40.8472 69.0376C40.1942 69.6889 39.31 70.0553 38.3877 70.0567C37.3931 70.048 36.4123 69.8236 35.5129 69.399C34.6134 68.9744 33.8169 68.3596 33.1782 67.5972L32.8894 67.3084C34.6254 68.3276 36.5074 67.164 37.9546 66.5848C38.5291 66.1376 39.23 65.8829 39.9576 65.857C40.6852 65.8311 41.4025 66.0352 42.0074 66.4404L42.0057 66.4319Z" fill="#002855"/>
<path d="M40.0184 64.839C40.9187 64.5247 41.6846 63.9122 42.1892 63.1031C42.6005 62.3504 42.8006 61.5006 42.7684 60.6435C42.6944 59.8575 42.4643 59.0942 42.0915 58.3983C41.7188 57.7024 41.2109 57.0879 40.5976 56.5907C40.4532 56.5907 40.4532 56.4463 40.3089 56.4463C40.8881 57.7491 39.874 59.6295 39.2897 61.0767C39.0202 61.7042 38.945 62.3982 39.074 63.0689C39.203 63.7396 39.5302 64.3562 40.0133 64.839H40.0184Z" fill="#002855"/>
<path d="M37.3484 62.5254C37.097 63.4195 36.5948 64.2229 35.9012 64.8406C35.1998 65.3792 34.323 65.6371 33.4417 65.5642C32.453 65.4409 31.5067 65.0891 30.6776 64.5366C29.8486 63.9841 29.1596 63.2461 28.6653 62.3811C28.6497 62.2717 28.599 62.1704 28.5209 62.0923C30.1124 63.3951 32.1389 62.5271 33.7304 62.0923C34.3027 61.7755 34.9602 61.6471 35.6097 61.7251C36.2591 61.8032 36.8674 62.0838 37.3484 62.5271V62.5254Z" fill="#002855"/>
<path d="M35.6463 60.6422C36.5646 60.4482 37.3847 59.9355 37.9615 59.195C38.519 58.5523 38.827 57.7307 38.8294 56.8799C38.9024 56.1175 38.8109 55.3483 38.5613 54.6242C38.3116 53.9002 37.9096 53.2381 37.3823 52.6827C37.3827 52.6636 37.3793 52.6446 37.3722 52.6269C37.3651 52.6091 37.3545 52.593 37.341 52.5795C37.3275 52.566 37.3114 52.5554 37.2937 52.5483C37.2759 52.5412 37.257 52.5378 37.2379 52.5383C37.6727 53.9855 36.3699 55.577 35.5019 57.0242C35.1375 57.564 34.955 58.2061 34.9809 58.8569C35.0069 59.5077 35.24 60.1332 35.6463 60.6422Z" fill="#002855"/>
<path d="M33.2275 58.184C32.8633 59.0557 32.2619 59.8078 31.4916 60.3548C31.1011 60.5811 30.6678 60.7237 30.2192 60.7734C29.7706 60.8232 29.3165 60.7789 28.886 60.6435C27.9192 60.3524 27.0286 59.8513 26.2781 59.1759C25.5276 58.5005 24.9355 57.6677 24.5444 56.7368C24.5444 56.5924 24.4 56.448 24.4 56.302C25.8472 57.7492 27.8736 57.3211 29.4652 57.0256C30.1342 56.7955 30.859 56.7836 31.5351 56.9918C32.2112 57.2 32.8038 57.6174 33.2275 58.184Z" fill="#002855"/>
<path d="M32.0062 56.0108C32.9451 55.8898 33.8399 55.5398 34.6118 54.9917C35.1898 54.3881 35.5906 53.6371 35.7702 52.8209C35.9526 52.0862 35.9825 51.3219 35.858 50.5752C35.7336 49.8285 35.4574 49.1152 35.0466 48.4793C35.0466 48.3349 34.9022 48.3349 34.9022 48.1906C35.0466 49.6377 33.5994 51.0781 32.4427 52.2434C31.9523 52.727 31.6418 53.3637 31.5627 54.048C31.4836 54.7322 31.6407 55.4229 32.0079 56.0057L32.0062 56.0108Z" fill="#002855"/>
<path d="M37.3484 62.5254C37.097 63.4195 36.5948 64.2229 35.9012 64.8406C35.1998 65.3792 34.323 65.6371 33.4417 65.5642C32.453 65.4409 31.5067 65.0891 30.6776 64.5366C29.8486 63.9841 29.1596 63.2461 28.6653 62.3811C28.6497 62.2717 28.599 62.1704 28.5209 62.0923C30.1124 63.3951 32.1389 62.5271 33.7304 62.0923C34.3027 61.7755 34.9602 61.6471 35.6097 61.7251C36.2591 61.8032 36.8674 62.0838 37.3484 62.5271V62.5254Z" fill="#002855"/>
<path d="M35.6463 60.6422C36.5646 60.4481 37.3847 59.9355 37.9615 59.195C38.519 58.5523 38.827 57.7306 38.8294 56.8798C38.9024 56.1174 38.8109 55.3482 38.5613 54.6242C38.3116 53.9001 37.9096 53.2381 37.3823 52.6826L37.2379 52.5382C37.6727 53.9854 36.3699 55.577 35.5019 57.0242C35.1375 57.564 34.955 58.2061 34.9809 58.8568C35.0069 59.5076 35.24 60.1331 35.6463 60.6422Z" fill="#002855"/>
<path d="M33.2275 58.184C32.9132 59.0843 32.3007 59.8502 31.4916 60.3548C31.1011 60.5811 30.6678 60.7237 30.2192 60.7734C29.7706 60.8232 29.3165 60.7789 28.886 60.6435C27.9074 60.3768 27.005 59.8844 26.251 59.206C25.4971 58.5275 24.9126 57.6819 24.5444 56.7368C24.5444 56.5924 24.4 56.448 24.4 56.302C25.8472 57.8935 27.8736 57.3211 29.4652 57.0256C30.1342 56.7955 30.859 56.7836 31.5351 56.9918C32.2112 57.2 32.8038 57.6174 33.2275 58.184Z" fill="#002855"/>
<path d="M32.0062 56.0108C32.9551 55.9308 33.8604 55.5768 34.6118 54.9917C35.1898 54.3881 35.5906 53.6371 35.7702 52.8209C35.9526 52.0862 35.9825 51.3219 35.858 50.5752C35.7336 49.8285 35.4574 49.1152 35.0466 48.4793C35.0466 48.3349 34.9022 48.3349 34.9022 48.1906C35.0466 49.6377 33.5994 51.0781 32.4427 52.2434C31.9523 52.727 31.6418 53.3637 31.5627 54.048C31.4836 54.7322 31.6407 55.4229 32.0079 56.0057L32.0062 56.0108Z" fill="#002855"/>
<path d="M29.895 53.1173C29.4082 53.9212 28.7063 54.5731 27.8686 54.9993C27.4472 55.1535 26.9989 55.2203 26.5509 55.1954C26.1029 55.1706 25.6647 55.0547 25.263 54.8549C24.3394 54.3823 23.5344 53.7073 22.908 52.8803C22.2815 52.0533 21.8498 51.0956 21.645 50.0785C21.6549 49.9998 21.647 49.92 21.622 49.8447C21.5971 49.7695 21.5556 49.7008 21.5006 49.6437C22.659 51.3796 24.8298 51.3796 26.4265 51.3796C27.1102 51.3126 27.7989 51.44 28.4134 51.7471C29.0279 52.0542 29.5432 52.5285 29.9001 53.1156L29.895 53.1173Z" fill="#002855"/>
<path d="M28.8826 50.8035C29.8367 50.8918 30.7952 50.6899 31.6326 50.2243C32.3479 49.78 32.9049 49.1214 33.2242 48.3422C33.5109 47.6544 33.6586 46.9166 33.6586 46.1715C33.6586 45.4263 33.5109 44.6885 33.2242 44.0007C33.2242 43.8563 33.0798 43.8563 33.0798 43.7119C32.9354 45.1591 31.1978 46.3175 30.041 47.3299C29.4762 47.6857 29.052 48.2263 28.8408 48.8596C28.6296 49.4929 28.6444 50.1798 28.8826 50.8035Z" fill="#002855"/>
<path d="M27.5797 47.7686C26.9877 48.4919 26.1742 49.0004 25.2646 49.2158C24.3539 49.3617 23.422 49.1545 22.6589 48.6366C21.842 47.9938 21.1734 47.1822 20.6988 46.2573C20.2242 45.3325 19.9547 44.3161 19.9089 43.2775V42.8427C20.6325 44.7247 22.7965 45.1579 24.3949 45.4483C25.0988 45.4649 25.781 45.6959 26.3501 46.1105C26.9192 46.5251 27.3482 47.1036 27.5797 47.7686Z" fill="#002855"/>
<path d="M26.8545 45.3042C27.7636 45.546 28.7257 45.4955 29.6045 45.1598C30.3837 44.8405 31.0423 44.2836 31.4865 43.5682C32.3204 42.3394 32.6326 40.8298 32.3545 39.371C32.3545 39.2267 32.3545 39.2267 32.2101 39.0823C31.7753 40.3851 29.895 41.2531 28.5921 42.121C27.9532 42.3327 27.4185 42.7792 27.0962 43.3701C26.7739 43.9611 26.6881 44.6524 26.8562 45.3042H26.8545Z" fill="#002855"/>
<path d="M29.895 53.1173C29.4082 53.9212 28.7063 54.5731 27.8686 54.9993C27.4472 55.1535 26.9989 55.2203 26.5509 55.1954C26.1029 55.1706 25.6647 55.0547 25.263 54.8549C24.3394 54.3823 23.5344 53.7073 22.908 52.8803C22.2815 52.0533 21.8498 51.0956 21.645 50.0785C21.6549 49.9998 21.647 49.92 21.622 49.8447C21.5971 49.7695 21.5556 49.7008 21.5006 49.6437C22.659 51.3796 24.8298 51.3796 26.4265 51.3796C27.1102 51.3126 27.7989 51.44 28.4134 51.7471C29.0279 52.0542 29.5432 52.5285 29.9001 53.1156L29.895 53.1173Z" fill="#002855"/>
<path d="M28.8826 50.8035C29.8367 50.8918 30.7952 50.6899 31.6326 50.2243C32.3479 49.78 32.9049 49.1214 33.2242 48.3422C33.5109 47.6544 33.6586 46.9166 33.6586 46.1715C33.6586 45.4263 33.5109 44.6885 33.2242 44.0007C33.2242 43.8563 33.0798 43.8563 33.0798 43.7119C32.9354 45.1591 31.1978 46.3175 30.041 47.3299C29.4762 47.6857 29.052 48.2263 28.8408 48.8596C28.6296 49.4929 28.6444 50.1798 28.8826 50.8035Z" fill="#002855"/>
<path d="M27.5797 47.7686C26.9877 48.4919 26.1742 49.0004 25.2646 49.2158C24.3539 49.3617 23.422 49.1545 22.6589 48.6366C21.8294 48.0054 21.1518 47.1964 20.6759 46.2691C20.2 45.3417 19.9379 44.3195 19.9089 43.2775V42.8427C20.6325 44.7247 22.7965 45.1579 24.3949 45.4483C25.0988 45.4649 25.781 45.6959 26.3501 46.1105C26.9192 46.5251 27.3482 47.1036 27.5797 47.7686Z" fill="#002855"/>
<path d="M26.8528 45.3042C27.7618 45.5461 28.724 45.4956 29.6028 45.1598C30.3819 44.8405 31.0405 44.2836 31.4848 43.5683C32.3187 42.3394 32.6309 40.8299 32.3528 39.3711V39.0806C31.9179 40.3834 30.0376 41.2514 28.7348 42.1194C28.0635 42.2926 27.4883 42.725 27.1355 43.3218C26.7827 43.9185 26.681 44.6309 26.8528 45.3025V45.3042Z" fill="#002855"/>
<path d="M26.1342 41.9751C25.4094 42.6054 24.4888 42.9655 23.5286 42.9942C22.6183 42.9371 21.753 42.5786 21.0691 41.9751C20.3858 41.1885 19.8776 40.2655 19.5783 39.2674C19.279 38.2694 19.1954 37.2191 19.3331 36.1863C19.3232 36.1076 19.3311 36.0278 19.3561 35.9525C19.381 35.8773 19.4225 35.8086 19.4775 35.7515C19.9123 37.7779 21.937 38.5015 23.5303 39.0807C24.2072 39.2389 24.8196 39.6003 25.2853 40.1164C25.751 40.6325 26.0478 41.2787 26.1359 41.9683L26.1342 41.9751Z" fill="#002855"/>
<path d="M25.9884 39.3752C26.8351 39.8101 27.7988 39.9625 28.7384 39.8101C29.5311 39.5704 30.2688 39.1768 30.9091 38.6516C31.4472 38.1589 31.8691 37.5529 32.1443 36.8773C32.4195 36.2016 32.5413 35.4733 32.5007 34.7449V34.4493C31.9215 35.7522 29.7507 36.1853 28.3035 36.6201C27.9684 36.6432 27.6414 36.7335 27.342 36.8857C27.0426 37.0379 26.7769 37.2489 26.5608 37.506C26.3448 37.7632 26.1827 38.0612 26.0843 38.3823C25.986 38.7035 25.9533 39.0412 25.9884 39.3752Z" fill="#002855"/>
<path d="M25.8421 36.0405C24.9858 36.4532 24.0421 36.652 23.0921 36.6197C22.215 36.421 21.442 35.9057 20.9213 35.1725C20.3652 34.2987 20.0229 33.306 19.9223 32.2752C19.8217 31.2443 19.9655 30.2042 20.3421 29.2393C20.3421 29.095 20.4864 28.9506 20.4864 28.8045C20.4864 30.9753 22.3685 31.9876 23.8157 32.8573C24.454 33.0948 24.9973 33.5343 25.3631 34.1088C25.7289 34.6833 25.897 35.3616 25.8421 36.0405Z" fill="#002855"/>
<path d="M26.1309 33.4361C26.8326 33.9748 27.6862 34.2786 28.5705 34.3046C29.4547 34.3305 30.3247 34.0771 31.0567 33.5805C31.6736 33.1723 32.1983 32.6395 32.597 32.0164C32.9957 31.3933 33.2597 30.6937 33.3719 29.9625V29.6738C32.5039 30.8322 30.4843 30.8322 28.886 31.121C28.2234 31.1046 27.5777 31.3308 27.0703 31.7572C26.5629 32.1836 26.2288 32.7807 26.1309 33.4361Z" fill="#002855"/>
<path d="M27.4881 47.1826H27.6324C25.5535 40.6731 25.6531 33.6635 27.9161 27.2157C30.2685 20.8368 34.2025 15.1599 39.3492 10.7174L39.2049 10.5731C34.0212 15.0422 30.0825 20.7768 27.7717 27.2191C25.5043 33.667 25.4029 40.6786 27.483 47.1893" fill="#002855"/>
<path d="M26.1326 41.9751C25.4077 42.6054 24.4871 42.9655 23.5269 42.9942C22.6532 42.9633 21.8246 42.5985 21.2118 41.9751C20.5284 41.1885 20.0203 40.2655 19.721 39.2674C19.4217 38.2694 19.3381 37.2191 19.4758 36.1863C19.4659 36.1076 19.4738 36.0278 19.4988 35.9525C19.5238 35.8773 19.5652 35.8086 19.6202 35.7515C20.055 37.7779 22.0797 38.5015 23.673 39.0807C24.3197 39.27 24.897 39.6442 25.334 40.1572C25.7709 40.6702 26.0485 41.2997 26.1326 41.9683V41.9751Z" fill="#002855"/>
<path d="M25.9881 39.3752C26.8348 39.8101 27.7985 39.9625 28.7381 39.8101C29.5309 39.5704 30.2685 39.1768 30.9089 38.6516C31.4469 38.1589 31.8688 37.5529 32.1441 36.8773C32.4193 36.2016 32.541 35.4733 32.5005 34.7449V34.4493C31.9213 35.7522 29.7505 36.1853 28.3033 36.6201C27.6356 36.6898 27.021 37.016 26.5892 37.53C26.1573 38.044 25.9418 38.7055 25.9881 39.3752Z" fill="#002855"/>
<path d="M25.8421 36.0405C24.9858 36.4532 24.0421 36.652 23.0921 36.6197C22.215 36.421 21.442 35.9057 20.9213 35.1725C20.3652 34.2987 20.0229 33.306 19.9223 32.2752C19.8217 31.2443 19.9655 30.2042 20.3421 29.2393C20.3421 29.095 20.4864 28.9506 20.4864 28.8045C20.4864 30.9753 22.3685 31.9876 23.8157 32.8573C24.454 33.0948 24.9973 33.5343 25.3631 34.1088C25.7289 34.6833 25.897 35.3616 25.8421 36.0405Z" fill="#002855"/>
<path d="M26.1309 33.4361C26.8326 33.9748 27.6862 34.2786 28.5705 34.3046C29.4547 34.3305 30.3247 34.0771 31.0567 33.5805C31.6736 33.1723 32.1983 32.6395 32.597 32.0164C32.9957 31.3933 33.2597 30.6937 33.3719 29.9625V29.6738C32.5039 30.8322 30.4843 30.8322 28.886 31.121C28.2234 31.1046 27.5777 31.3308 27.0703 31.7572C26.5629 32.1836 26.2288 32.7807 26.1309 33.4361Z" fill="#002855"/>
<path d="M26.7101 30.1075C25.8163 30.397 24.8539 30.397 23.9601 30.1075C23.1338 29.7171 22.4686 29.0519 22.0781 28.2255C21.7095 27.2586 21.5708 26.2194 21.6728 25.1897C21.7748 24.16 22.1147 23.1681 22.6658 22.2924C22.6658 22.148 22.8102 22.148 22.8102 22.0036C22.3754 24.03 24.113 25.4772 25.2697 26.4895C25.8456 26.8783 26.2914 27.431 26.5494 28.0761C26.8075 28.7212 26.8658 29.4289 26.7169 30.1075H26.7101Z" fill="#002855"/>
<path d="M27.6393 27.648C28.2608 28.3827 29.1418 28.8494 30.0988 28.9508C31.2601 29.1147 32.4415 28.8534 33.4253 28.2151C34.4092 27.5768 35.1292 26.6044 35.4528 25.4772C35.4528 25.3328 35.4528 25.3328 35.5971 25.1884C34.578 26.2076 32.414 25.7676 30.8207 25.7676C30.1598 25.705 29.4961 25.8533 28.9246 26.191C28.3531 26.5288 27.9032 27.0388 27.6393 27.648Z" fill="#002855"/>
<path d="M28.5904 24.4647C27.6335 24.6257 26.6511 24.4187 25.8404 23.8855C25.4633 23.6421 25.1402 23.3239 24.8913 22.9504C24.6423 22.577 24.4728 22.1564 24.3932 21.7147C24.1906 20.7257 24.2157 19.7036 24.4664 18.7257C24.7171 17.7479 25.187 16.8398 25.8404 16.0703L26.1291 15.7816C25.4055 17.6636 26.8527 19.3995 27.8651 20.7074C28.3482 21.1902 28.6754 21.8068 28.8044 22.4775C28.9334 23.1483 28.8582 23.8422 28.5887 24.4698L28.5904 24.4647Z" fill="#002855"/>
<path d="M30.1174 22.1497C30.5738 22.9437 31.2892 23.5566 32.1438 23.8857C32.8869 24.1491 33.6889 24.1991 34.459 24.0301C35.1562 23.8277 35.8015 23.4773 36.3509 23.0027C36.9002 22.5281 37.3407 21.9405 37.6421 21.2801C37.6421 21.1357 37.6421 21.1357 37.7865 20.9913C36.6281 21.8593 34.7478 21.1357 33.3006 20.8469C32.7008 20.6752 32.0606 20.7104 31.4832 20.9467C30.9058 21.183 30.4247 21.6068 30.1174 22.1497Z" fill="#002855"/>
<path d="M26.71 30.1075C25.8162 30.397 24.8538 30.397 23.96 30.1075C23.1337 29.7171 22.4685 29.0519 22.078 28.2255C21.6727 27.2666 21.5134 26.2216 21.6145 25.1854C21.7157 24.1493 22.0741 23.1548 22.6572 22.2924C22.6572 22.148 22.8016 22.148 22.8016 22.0036C22.3668 24.03 24.1044 25.4772 25.2611 26.4895C25.837 26.8783 26.2828 27.431 26.5408 28.0761C26.7989 28.7212 26.8572 29.4289 26.7083 30.1075H26.71Z" fill="#002855"/>
<path d="M27.6393 27.648C28.2608 28.3827 29.1418 28.8494 30.0988 28.9508C31.2601 29.1147 32.4415 28.8534 33.4253 28.2151C34.4092 27.5768 35.1292 26.6044 35.4528 25.4772C35.4528 25.3328 35.4528 25.3328 35.5971 25.1884C34.578 26.2076 32.414 25.912 30.8207 25.7676C30.1598 25.705 29.4961 25.8533 28.9246 26.191C28.3531 26.5288 27.9032 27.0388 27.6393 27.648Z" fill="#002855"/>
<path d="M28.5904 24.4647C27.6335 24.6257 26.6511 24.4187 25.8404 23.8855C25.4633 23.6421 25.1402 23.3239 24.8913 22.9504C24.6423 22.577 24.4728 22.1564 24.3932 21.7147C24.1906 20.7257 24.2157 19.7036 24.4664 18.7257C24.7171 17.7479 25.187 16.8398 25.8404 16.0703L26.1291 15.7816C25.4055 17.6636 26.8527 19.3995 27.8651 20.7074C28.3482 21.1902 28.6754 21.8068 28.8044 22.4775C28.9334 23.1483 28.8582 23.8422 28.5887 24.4698L28.5904 24.4647Z" fill="#002855"/>
<path d="M31.4865 19.253C30.5584 19.2645 29.6592 18.9301 28.964 18.315C28.2688 17.6999 27.8275 16.8481 27.7259 15.9255C27.6727 14.9149 27.854 13.9058 28.2556 12.977C28.6573 12.0482 29.2683 11.2249 30.041 10.5715L30.3298 10.2828C29.4618 12.0187 30.6185 13.9008 31.3489 15.3479C31.7641 15.9087 32 16.5818 32.0258 17.279C32.0515 17.9762 31.8659 18.6648 31.4933 19.2547L31.4865 19.253Z" fill="#002855"/>
<path d="M35.3321 14.4784C34.5159 14.2988 33.7649 13.898 33.1613 13.32C32.6874 12.6959 32.4331 11.9328 32.4377 11.1492C32.5038 10.3092 32.7595 9.49512 33.1855 8.76815C33.6115 8.04119 34.1967 7.42024 34.8972 6.95199C35.0416 6.95199 35.0416 6.80762 35.186 6.80762C34.1668 8.25481 35.0416 9.99076 35.4747 11.1492C35.8393 11.6352 36.0241 12.2326 35.9978 12.8396C35.9715 13.4466 35.7356 14.0257 35.3304 14.4784H35.3321Z" fill="#002855"/>
<path d="M29.2597 23.8855C32.1708 17.7566 36.546 12.4387 41.9991 8.4012C44.7491 6.37479 47.4991 4.49446 49.9586 3.04727L49.8142 2.90289C47.4991 4.49446 44.6047 6.23211 41.8547 8.40289C36.4268 12.5626 32.0212 17.9076 28.9744 24.0298L29.2597 23.8855Z" fill="#002855"/>
<path d="M31.4865 19.253C31.0054 19.2722 30.5255 19.1916 30.077 19.0162C29.6286 18.8408 29.2213 18.5744 28.8809 18.2338C28.2471 17.6163 27.8402 16.803 27.7259 15.9255C27.6727 14.9149 27.854 13.9058 28.2556 12.977C28.6573 12.0482 29.2683 11.2249 30.041 10.5715L30.3298 10.2828C29.4618 12.0187 30.6185 13.9008 31.3489 15.3479C31.7641 15.9087 32 16.5818 32.0258 17.279C32.0515 17.9762 31.8659 18.6648 31.4933 19.2547L31.4865 19.253Z" fill="#002855"/>
<path d="M33.3245 17.2277C33.676 17.9456 34.1681 18.5856 34.7716 19.1097C35.3809 19.4735 36.0932 19.6263 36.7981 19.5445C37.439 19.4424 38.0522 19.2098 38.5997 18.8613C39.1472 18.5128 39.6174 18.0556 39.9812 17.5181C39.9812 17.3738 40.1256 17.3738 40.1256 17.2294C38.9671 17.8086 37.52 17.085 36.2188 16.5058C35.9826 16.3607 35.7197 16.2642 35.4456 16.2221C35.1716 16.1799 34.8918 16.1929 34.6229 16.2603C34.3539 16.3277 34.1011 16.4482 33.8793 16.6146C33.6575 16.781 33.4712 16.99 33.3313 17.2294L33.3245 17.2277Z" fill="#002855"/>
<path d="M35.3321 14.4784C34.5159 14.2988 33.7649 13.898 33.1613 13.32C32.6874 12.6959 32.4331 11.9328 32.4377 11.1492C32.5038 10.3092 32.7595 9.49512 33.1855 8.76815C33.6115 8.04119 34.1967 7.42024 34.8972 6.95199C35.0416 6.95199 35.0416 6.80762 35.186 6.80762C34.1668 8.25481 35.0416 9.99076 35.4747 11.1492C35.8393 11.6352 36.0241 12.2326 35.9978 12.8396C35.9715 13.4466 35.7356 14.0257 35.3304 14.4784H35.3321Z" fill="#002855"/>
<path d="M37.2599 12.7432C37.4117 13.4877 37.8221 14.1544 38.4183 14.6252C38.9489 15.0512 39.6221 15.2584 40.3003 15.2045C40.9234 15.1954 41.5385 15.0629 42.11 14.8145C42.6814 14.5661 43.198 14.2067 43.6296 13.7573L43.7739 13.6129C42.6155 14.0477 41.3144 13.1781 40.156 12.5937C39.288 12.0145 38.1296 11.5746 37.2684 12.7381L37.2599 12.7432Z" fill="#002855"/>
<path d="M39.2796 10.5717C38.54 10.3276 37.8865 9.87522 37.3976 9.26893C37.1851 8.98152 37.0364 8.6521 36.9614 8.30265C36.8864 7.95321 36.8869 7.59178 36.9627 7.24252C37.1521 6.4846 37.4934 5.77307 37.9662 5.15113C38.4389 4.52919 39.0331 4.00982 39.7127 3.62455C39.8571 3.62455 39.8571 3.48016 40.0015 3.48016C38.9823 4.63859 39.5666 6.36775 39.8571 7.67736C40.1077 8.15178 40.187 8.69816 40.0814 9.22424C39.9759 9.75032 39.6921 10.2239 39.2779 10.5649L39.2796 10.5717Z" fill="#002855"/>
<path d="M41.1956 8.97945C41.2972 9.66841 41.6626 10.2909 42.2147 10.7154C42.7217 11.1015 43.3195 11.3507 43.9507 11.439C44.545 11.4751 45.1399 11.3767 45.691 11.1511C46.2421 10.9255 46.7353 10.5786 47.1338 10.1362L47.2782 9.9918C46.1197 10.4266 44.963 9.41259 43.949 8.83337C43.5432 8.53935 43.0489 8.39331 42.5484 8.41958C42.048 8.44585 41.5717 8.64286 41.199 8.97775L41.1956 8.97945Z" fill="#002855"/>
<path d="M43.5124 7.24339C42.9454 6.96597 42.487 6.50756 42.2096 5.94058C42.0667 5.67358 41.9919 5.37544 41.9919 5.07261C41.9919 4.76978 42.0667 4.47163 42.2096 4.20463C42.4163 3.6406 42.7434 3.12838 43.1681 2.70362C43.5929 2.27886 44.1051 1.95176 44.6691 1.74509C44.8135 1.74509 44.8135 1.74509 44.8135 1.60071C43.9455 2.46868 44.2343 3.7715 44.3787 4.92993C44.5146 5.35726 44.5029 5.81789 44.3455 6.23778C44.1881 6.65767 43.8941 7.01245 43.5107 7.24509L43.5124 7.24339Z" fill="#002855"/>
<path d="M47.0201 4.63717C46.8094 4.40183 46.6493 4.12571 46.5496 3.82593C46.45 3.52615 46.413 3.2091 46.4409 2.89443C46.479 2.31968 46.6799 1.76764 47.0201 1.30286C47.439 0.887134 47.9358 0.55808 48.482 0.33453C49.0282 0.110979 49.6131 -0.00268334 50.2033 4.80844e-05H50.492C49.4729 0.434885 49.1892 1.736 48.9005 2.75005C48.6117 3.61802 48.1769 4.486 47.0184 4.63208L47.0201 4.63717Z" fill="#002855"/>
<path d="M45.2773 5.79553C45.4157 6.48204 45.713 7.1266 46.1453 7.67755C46.5614 8.11675 47.1324 8.37634 47.7369 8.40115C48.3628 8.41079 48.9837 8.28668 49.5578 8.03711C50.1319 7.78753 50.6462 7.41825 51.0661 6.95396L51.2105 6.80958C50.0521 7.3888 48.8953 6.37474 47.8813 5.94161C47.7226 5.75687 47.5282 5.60609 47.3098 5.49829C47.0915 5.39048 46.8536 5.32788 46.6104 5.31424C46.3672 5.3006 46.1238 5.3362 45.8948 5.4189C45.6657 5.5016 45.4557 5.62971 45.2773 5.79553Z" fill="#002855"/>
<path d="M49.3573 3.33679C49.6269 3.82415 50.0284 4.22565 50.5157 4.49522C50.9732 4.68558 51.4769 4.73583 51.9629 4.63959C52.4704 4.53047 52.945 4.30317 53.3482 3.97616C53.7514 3.64915 54.0717 3.23165 54.2832 2.75757C54.2836 2.72077 54.2984 2.68559 54.3245 2.65957C54.3505 2.63354 54.3857 2.61873 54.4225 2.61829C53.6989 3.34188 52.3961 2.90704 51.5349 2.76266C51.1658 2.57184 50.7389 2.52545 50.3375 2.63255C49.9361 2.73966 49.589 2.99257 49.3641 3.34188L49.3573 3.33679Z" fill="#002855"/>
<path d="M49.5033 3.19652C50.0825 1.74933 51.6741 2.17737 52.8325 2.47293C53.1213 2.47293 53.4117 2.6173 53.7005 2.6173C53.9506 2.63982 54.2018 2.58969 54.4241 2.47293C54.2395 2.96851 53.9423 3.41447 53.5561 3.77573" fill="#002855"/>
</svg>
